<?xml version="1.0" encoding="utf-8" standalone="no"?>
<!DOCTYPE svg PUBLIC "-//W3C//DTD SVG 1.1//EN"
  "http://www.w3.org/Graphics/SVG/1.1/DTD/svg11.dtd">
<svg xmlns:xlink="http://www.w3.org/1999/xlink" width="915.451985pt" height="264.711597pt" viewBox="0 0 915.451985 264.711597" xmlns="http://www.w3.org/2000/svg" version="1.1">
 <metadata>
  <rdf:RDF xmlns:dc="http://purl.org/dc/elements/1.1/" xmlns:cc="http://creativecommons.org/ns#" xmlns:rdf="http://www.w3.org/1999/02/22-rdf-syntax-ns#">
   <cc:Work>
    <dc:type rdf:resource="http://purl.org/dc/dcmitype/StillImage"/>
    <dc:date>2024-05-10T15:57:46.185438</dc:date>
    <dc:format>image/svg+xml</dc:format>
    <dc:creator>
     <cc:Agent>
      <dc:title>Matplotlib v3.8.4, https://matplotlib.org/</dc:title>
     </cc:Agent>
    </dc:creator>
   </cc:Work>
  </rdf:RDF>
 </metadata>
 <defs>
  <style type="text/css">*{stroke-linejoin: round; stroke-linecap: butt}</style>
 </defs>
 <g id="figure_1">
  <g id="patch_1">
   <path d="M 0 264.711597 
L 915.451985 264.711597 
L 915.451985 0 
L 0 0 
L 0 264.711597 
z
" style="fill: none"/>
  </g>
  <g id="axes_1">
   <g id="line2d_1">
    <path d="M 64.609196 44.2832 
L 903.616585 44.2832 
" clip-path="url(#pe3896e6dc6)" style="fill: none; stroke: #000000; stroke-width: 2; stroke-linecap: square"/>
   </g>
   <g id="line2d_2">
    <path d="M 64.609196 90.637199 
L 903.616585 90.637199 
" clip-path="url(#pe3896e6dc6)" style="fill: none; stroke: #000000; stroke-width: 2; stroke-linecap: square"/>
   </g>
   <g id="line2d_3">
    <path d="M 64.609196 136.991198 
L 903.616585 136.991198 
" clip-path="url(#pe3896e6dc6)" style="fill: none; stroke: #000000; stroke-width: 2; stroke-linecap: square"/>
   </g>
   <g id="line2d_4">
    <path d="M 64.609196 183.345198 
L 903.616585 183.345198 
" clip-path="url(#pe3896e6dc6)" style="fill: none; stroke: #000000; stroke-width: 2; stroke-linecap: square"/>
   </g>
   <g id="line2d_5">
    <path d="M 64.609196 229.699197 
L 903.616585 229.699197 
" clip-path="url(#pe3896e6dc6)" style="fill: none; stroke: #000000; stroke-width: 2; stroke-linecap: square"/>
   </g>
   <g id="patch_2">
    <path d="M 59.973797 21.1062 
L -1098.876188 21.1062 
L -1098.876188 299.230196 
L 59.973797 299.230196 
z
" clip-path="url(#pe3896e6dc6)" style="fill: #ffffff; stroke: #ffffff; stroke-width: 1.5; stroke-linejoin: miter"/>
   </g>
   <g id="line2d_6">
    <path d="M 135.994356 229.699197 
L 135.994356 183.345198 
" clip-path="url(#pe3896e6dc6)" style="fill: none; stroke: #6fa4ff; stroke-width: 2; stroke-linecap: square"/>
   </g>
   <g id="line2d_7">
    <path d="M 182.348355 183.345198 
L 182.348355 136.991198 
" clip-path="url(#pe3896e6dc6)" style="fill: none; stroke: #6fa4ff; stroke-width: 2; stroke-linecap: square"/>
   </g>
   <g id="line2d_8">
    <path d="M 228.702354 136.991198 
L 228.702354 90.637199 
" clip-path="url(#pe3896e6dc6)" style="fill: none; stroke: #6fa4ff; stroke-width: 2; stroke-linecap: square"/>
   </g>
   <g id="line2d_9">
    <path d="M 275.056354 90.637199 
L 275.056354 44.2832 
" clip-path="url(#pe3896e6dc6)" style="fill: none; stroke: #6fa4ff; stroke-width: 2; stroke-linecap: square"/>
   </g>
   <g id="line2d_10">
    <path d="M 275.056354 229.699197 
L 275.056354 183.345198 
" clip-path="url(#pe3896e6dc6)" style="fill: none; stroke: #6fa4ff; stroke-width: 2; stroke-linecap: square"/>
   </g>
   <g id="line2d_11">
    <path d="M 321.410353 183.345198 
L 321.410353 136.991198 
" clip-path="url(#pe3896e6dc6)" style="fill: none; stroke: #6fa4ff; stroke-width: 2; stroke-linecap: square"/>
   </g>
   <g id="line2d_12">
    <path d="M 367.764352 136.991198 
L 367.764352 90.637199 
" clip-path="url(#pe3896e6dc6)" style="fill: none; stroke: #6fa4ff; stroke-width: 2; stroke-linecap: square"/>
   </g>
   <g id="line2d_13">
    <path d="M 414.118352 90.637199 
L 414.118352 44.2832 
" clip-path="url(#pe3896e6dc6)" style="fill: none; stroke: #6fa4ff; stroke-width: 2; stroke-linecap: square"/>
   </g>
   <g id="line2d_14">
    <path d="M 414.118352 229.699197 
L 414.118352 183.345198 
" clip-path="url(#pe3896e6dc6)" style="fill: none; stroke: #6fa4ff; stroke-width: 2; stroke-linecap: square"/>
   </g>
   <g id="line2d_15">
    <path d="M 460.472351 183.345198 
L 460.472351 136.991198 
" clip-path="url(#pe3896e6dc6)" style="fill: none; stroke: #6fa4ff; stroke-width: 2; stroke-linecap: square"/>
   </g>
   <g id="line2d_16">
    <path d="M 506.826351 136.991198 
L 506.826351 90.637199 
" clip-path="url(#pe3896e6dc6)" style="fill: none; stroke: #6fa4ff; stroke-width: 2; stroke-linecap: square"/>
   </g>
   <g id="line2d_17">
    <path d="M 553.18035 90.637199 
L 553.18035 44.2832 
" clip-path="url(#pe3896e6dc6)" style="fill: none; stroke: #6fa4ff; stroke-width: 2; stroke-linecap: square"/>
   </g>
   <g id="line2d_18">
    <path d="M 553.18035 229.699197 
L 553.18035 183.345198 
" clip-path="url(#pe3896e6dc6)" style="fill: none; stroke: #6fa4ff; stroke-width: 2; stroke-linecap: square"/>
   </g>
   <g id="line2d_19">
    <path d="M 599.534349 183.345198 
L 599.534349 136.991198 
" clip-path="url(#pe3896e6dc6)" style="fill: none; stroke: #6fa4ff; stroke-width: 2; stroke-linecap: square"/>
   </g>
   <g id="line2d_20">
    <path d="M 645.888349 136.991198 
L 645.888349 90.637199 
" clip-path="url(#pe3896e6dc6)" style="fill: none; stroke: #6fa4ff; stroke-width: 2; stroke-linecap: square"/>
   </g>
   <g id="line2d_21">
    <path d="M 692.242348 90.637199 
L 692.242348 44.2832 
" clip-path="url(#pe3896e6dc6)" style="fill: none; stroke: #6fa4ff; stroke-width: 2; stroke-linecap: square"/>
   </g>
   <g id="line2d_22">
    <path d="M 692.242348 229.699197 
L 692.242348 183.345198 
" clip-path="url(#pe3896e6dc6)" style="fill: none; stroke: #6fa4ff; stroke-width: 2; stroke-linecap: square"/>
   </g>
   <g id="line2d_23">
    <path d="M 738.596348 183.345198 
L 738.596348 136.991198 
" clip-path="url(#pe3896e6dc6)" style="fill: none; stroke: #6fa4ff; stroke-width: 2; stroke-linecap: square"/>
   </g>
   <g id="line2d_24">
    <path d="M 784.950347 136.991198 
L 784.950347 90.637199 
" clip-path="url(#pe3896e6dc6)" style="fill: none; stroke: #6fa4ff; stroke-width: 2; stroke-linecap: square"/>
   </g>
   <g id="line2d_25">
    <path d="M 831.304346 90.637199 
L 831.304346 44.2832 
" clip-path="url(#pe3896e6dc6)" style="fill: none; stroke: #6fa4ff; stroke-width: 2; stroke-linecap: square"/>
   </g>
   <g id="patch_3">
    <path d="M 74.575306 59.348249 
L 104.705406 59.348249 
L 104.705406 29.21815 
L 74.575306 29.21815 
z
" clip-path="url(#pe3896e6dc6)" style="fill: #bb8bff; stroke: #bb8bff; stroke-width: 1.5; stroke-linejoin: miter"/>
   </g>
   <g id="patch_4">
    <path d="M 74.575306 105.702249 
L 104.705406 105.702249 
L 104.705406 75.572149 
L 74.575306 75.572149 
z
" clip-path="url(#pe3896e6dc6)" style="fill: #bb8bff; stroke: #bb8bff; stroke-width: 1.5; stroke-linejoin: miter"/>
   </g>
   <g id="patch_5">
    <path d="M 74.575306 152.056248 
L 104.705406 152.056248 
L 104.705406 121.926148 
L 74.575306 121.926148 
z
" clip-path="url(#pe3896e6dc6)" style="fill: #bb8bff; stroke: #bb8bff; stroke-width: 1.5; stroke-linejoin: miter"/>
   </g>
   <g id="patch_6">
    <path d="M 74.575306 198.410247 
L 104.705406 198.410247 
L 104.705406 168.280148 
L 74.575306 168.280148 
z
" clip-path="url(#pe3896e6dc6)" style="fill: #bb8bff; stroke: #bb8bff; stroke-width: 1.5; stroke-linejoin: miter"/>
   </g>
   <g id="patch_7">
    <path d="M 74.575306 244.764247 
L 104.705406 244.764247 
L 104.705406 214.634147 
L 74.575306 214.634147 
z
" clip-path="url(#pe3896e6dc6)" style="fill: #bb8bff; stroke: #bb8bff; stroke-width: 1.5; stroke-linejoin: miter"/>
   </g>
   <g id="patch_8">
    <path d="M 135.994356 187.864713 
C 137.192945 187.864713 138.342605 187.388508 139.190135 186.540977 
C 140.037666 185.693447 140.51387 184.543787 140.51387 183.345198 
C 140.51387 182.146608 140.037666 180.996949 139.190135 180.149418 
C 138.342605 179.301887 137.192945 178.825683 135.994356 178.825683 
C 134.795766 178.825683 133.646107 179.301887 132.798576 180.149418 
C 131.951045 180.996949 131.474841 182.146608 131.474841 183.345198 
C 131.474841 184.543787 131.951045 185.693447 132.798576 186.540977 
C 133.646107 187.388508 134.795766 187.864713 135.994356 187.864713 
z
" clip-path="url(#pe3896e6dc6)" style="fill: #6fa4ff; stroke: #6fa4ff; stroke-width: 1.5; stroke-linejoin: miter"/>
   </g>
   <g id="patch_9">
    <path d="M 135.994356 240.244732 
C 138.791064 240.244732 141.473603 239.133588 143.451175 237.156016 
C 145.428746 235.178445 146.53989 232.495906 146.53989 229.699197 
C 146.53989 226.902489 145.428746 224.219949 143.451175 222.242378 
C 141.473603 220.264806 138.791064 219.153662 135.994356 219.153662 
C 133.197647 219.153662 130.515108 220.264806 128.537536 222.242378 
C 126.559965 224.219949 125.448821 226.902489 125.448821 229.699197 
C 125.448821 232.495906 126.559965 235.178445 128.537536 237.156016 
C 130.515108 239.133588 133.197647 240.244732 135.994356 240.244732 
z
" clip-path="url(#pe3896e6dc6)" style="fill: #6fa4ff; stroke: #6fa4ff; stroke-width: 2; stroke-linejoin: miter"/>
   </g>
   <g id="patch_10">
    <path d="M 182.348355 141.510713 
C 183.546944 141.510713 184.696604 141.034509 185.544135 140.186978 
C 186.391665 139.339447 186.86787 138.189788 186.86787 136.991198 
C 186.86787 135.792609 186.391665 134.642949 185.544135 133.795419 
C 184.696604 132.947888 183.546944 132.471683 182.348355 132.471683 
C 181.149766 132.471683 180.000106 132.947888 179.152575 133.795419 
C 178.305045 134.642949 177.82884 135.792609 177.82884 136.991198 
C 177.82884 138.189788 178.305045 139.339447 179.152575 140.186978 
C 180.000106 141.034509 181.149766 141.510713 182.348355 141.510713 
z
" clip-path="url(#pe3896e6dc6)" style="fill: #6fa4ff; stroke: #6fa4ff; stroke-width: 1.5; stroke-linejoin: miter"/>
   </g>
   <g id="patch_11">
    <path d="M 182.348355 193.890733 
C 185.145063 193.890733 187.827603 192.779588 189.805174 190.802017 
C 191.782746 188.824445 192.89389 186.141906 192.89389 183.345198 
C 192.89389 180.548489 191.782746 177.86595 189.805174 175.888378 
C 187.827603 173.910807 185.145063 172.799663 182.348355 172.799663 
C 179.551646 172.799663 176.869107 173.910807 174.891536 175.888378 
C 172.913964 177.86595 171.80282 180.548489 171.80282 183.345198 
C 171.80282 186.141906 172.913964 188.824445 174.891536 190.802017 
C 176.869107 192.779588 179.551646 193.890733 182.348355 193.890733 
z
" clip-path="url(#pe3896e6dc6)" style="fill: #6fa4ff; stroke: #6fa4ff; stroke-width: 2; stroke-linejoin: miter"/>
   </g>
   <g id="patch_12">
    <path d="M 167.283305 244.764247 
L 197.413405 244.764247 
L 197.413405 214.634147 
L 167.283305 214.634147 
z
" clip-path="url(#pe3896e6dc6)" style="fill: #bb8bff; stroke: #bb8bff; stroke-width: 1.5; stroke-linejoin: miter"/>
   </g>
   <g id="patch_13">
    <path d="M 228.702354 95.156714 
C 229.900944 95.156714 231.050603 94.680509 231.898134 93.832979 
C 232.745665 92.985448 233.221869 91.835788 233.221869 90.637199 
C 233.221869 89.43861 232.745665 88.28895 231.898134 87.441419 
C 231.050603 86.593889 229.900944 86.117684 228.702354 86.117684 
C 227.503765 86.117684 226.354105 86.593889 225.506575 87.441419 
C 224.659044 88.28895 224.182839 89.43861 224.182839 90.637199 
C 224.182839 91.835788 224.659044 92.985448 225.506575 93.832979 
C 226.354105 94.680509 227.503765 95.156714 228.702354 95.156714 
z
" clip-path="url(#pe3896e6dc6)" style="fill: #6fa4ff; stroke: #6fa4ff; stroke-width: 1.5; stroke-linejoin: miter"/>
   </g>
   <g id="patch_14">
    <path d="M 228.702354 147.536733 
C 231.499063 147.536733 234.181602 146.425589 236.159173 144.448017 
C 238.136745 142.470446 239.247889 139.787907 239.247889 136.991198 
C 239.247889 134.19449 238.136745 131.511951 236.159173 129.534379 
C 234.181602 127.556807 231.499063 126.445663 228.702354 126.445663 
C 225.905646 126.445663 223.223107 127.556807 221.245535 129.534379 
C 219.267964 131.511951 218.156819 134.19449 218.156819 136.991198 
C 218.156819 139.787907 219.267964 142.470446 221.245535 144.448017 
C 223.223107 146.425589 225.905646 147.536733 228.702354 147.536733 
z
" clip-path="url(#pe3896e6dc6)" style="fill: #6fa4ff; stroke: #6fa4ff; stroke-width: 2; stroke-linejoin: miter"/>
   </g>
   <g id="patch_15">
    <path d="M 213.637304 198.410247 
L 243.767404 198.410247 
L 243.767404 168.280148 
L 213.637304 168.280148 
z
" clip-path="url(#pe3896e6dc6)" style="fill: #bb8bff; stroke: #bb8bff; stroke-width: 1.5; stroke-linejoin: miter"/>
   </g>
   <g id="patch_16">
    <path d="M 275.056354 48.802714 
C 276.254943 48.802714 277.404603 48.32651 278.252133 47.478979 
C 279.099664 46.631448 279.575869 45.481789 279.575869 44.2832 
C 279.575869 43.08461 279.099664 41.934951 278.252133 41.08742 
C 277.404603 40.239889 276.254943 39.763685 275.056354 39.763685 
C 273.857764 39.763685 272.708105 40.239889 271.860574 41.08742 
C 271.013043 41.934951 270.536839 43.08461 270.536839 44.2832 
C 270.536839 45.481789 271.013043 46.631448 271.860574 47.478979 
C 272.708105 48.32651 273.857764 48.802714 275.056354 48.802714 
z
" clip-path="url(#pe3896e6dc6)" style="fill: #6fa4ff; stroke: #6fa4ff; stroke-width: 1.5; stroke-linejoin: miter"/>
   </g>
   <g id="patch_17">
    <path d="M 275.056354 101.182734 
C 277.853062 101.182734 280.535601 100.07159 282.513173 98.094018 
C 284.490744 96.116447 285.601889 93.433907 285.601889 90.637199 
C 285.601889 87.84049 284.490744 85.157951 282.513173 83.18038 
C 280.535601 81.202808 277.853062 80.091664 275.056354 80.091664 
C 272.259645 80.091664 269.577106 81.202808 267.599534 83.18038 
C 265.621963 85.157951 264.510819 87.84049 264.510819 90.637199 
C 264.510819 93.433907 265.621963 96.116447 267.599534 98.094018 
C 269.577106 100.07159 272.259645 101.182734 275.056354 101.182734 
z
" clip-path="url(#pe3896e6dc6)" style="fill: #6fa4ff; stroke: #6fa4ff; stroke-width: 2; stroke-linejoin: miter"/>
   </g>
   <g id="patch_18">
    <path d="M 259.991304 152.056248 
L 290.121403 152.056248 
L 290.121403 121.926148 
L 259.991304 121.926148 
z
" clip-path="url(#pe3896e6dc6)" style="fill: #bb8bff; stroke: #bb8bff; stroke-width: 1.5; stroke-linejoin: miter"/>
   </g>
   <g id="patch_19">
    <path d="M 275.056354 187.864713 
C 276.254943 187.864713 277.404603 187.388508 278.252133 186.540977 
C 279.099664 185.693447 279.575869 184.543787 279.575869 183.345198 
C 279.575869 182.146608 279.099664 180.996949 278.252133 180.149418 
C 277.404603 179.301887 276.254943 178.825683 275.056354 178.825683 
C 273.857764 178.825683 272.708105 179.301887 271.860574 180.149418 
C 271.013043 180.996949 270.536839 182.146608 270.536839 183.345198 
C 270.536839 184.543787 271.013043 185.693447 271.860574 186.540977 
C 272.708105 187.388508 273.857764 187.864713 275.056354 187.864713 
z
" clip-path="url(#pe3896e6dc6)" style="fill: #6fa4ff; stroke: #6fa4ff; stroke-width: 1.5; stroke-linejoin: miter"/>
   </g>
   <g id="patch_20">
    <path d="M 275.056354 240.244732 
C 277.853062 240.244732 280.535601 239.133588 282.513173 237.156016 
C 284.490744 235.178445 285.601889 232.495906 285.601889 229.699197 
C 285.601889 226.902489 284.490744 224.219949 282.513173 222.242378 
C 280.535601 220.264806 277.853062 219.153662 275.056354 219.153662 
C 272.259645 219.153662 269.577106 220.264806 267.599534 222.242378 
C 265.621963 224.219949 264.510819 226.902489 264.510819 229.699197 
C 264.510819 232.495906 265.621963 235.178445 267.599534 237.156016 
C 269.577106 239.133588 272.259645 240.244732 275.056354 240.244732 
z
" clip-path="url(#pe3896e6dc6)" style="fill: #6fa4ff; stroke: #6fa4ff; stroke-width: 2; stroke-linejoin: miter"/>
   </g>
   <g id="patch_21">
    <path d="M 306.345303 59.348249 
L 336.475403 59.348249 
L 336.475403 29.21815 
L 306.345303 29.21815 
z
" clip-path="url(#pe3896e6dc6)" style="fill: #bb8bff; stroke: #bb8bff; stroke-width: 1.5; stroke-linejoin: miter"/>
   </g>
   <g id="patch_22">
    <path d="M 306.345303 105.702249 
L 336.475403 105.702249 
L 336.475403 75.572149 
L 306.345303 75.572149 
z
" clip-path="url(#pe3896e6dc6)" style="fill: #bb8bff; stroke: #bb8bff; stroke-width: 1.5; stroke-linejoin: miter"/>
   </g>
   <g id="patch_23">
    <path d="M 321.410353 141.510713 
C 322.608942 141.510713 323.758602 141.034509 324.606133 140.186978 
C 325.453663 139.339447 325.929868 138.189788 325.929868 136.991198 
C 325.929868 135.792609 325.453663 134.642949 324.606133 133.795419 
C 323.758602 132.947888 322.608942 132.471683 321.410353 132.471683 
C 320.211764 132.471683 319.062104 132.947888 318.214573 133.795419 
C 317.367043 134.642949 316.890838 135.792609 316.890838 136.991198 
C 316.890838 138.189788 317.367043 139.339447 318.214573 140.186978 
C 319.062104 141.034509 320.211764 141.510713 321.410353 141.510713 
z
" clip-path="url(#pe3896e6dc6)" style="fill: #6fa4ff; stroke: #6fa4ff; stroke-width: 1.5; stroke-linejoin: miter"/>
   </g>
   <g id="patch_24">
    <path d="M 321.410353 193.890733 
C 324.207062 193.890733 326.889601 192.779588 328.867172 190.802017 
C 330.844744 188.824445 331.955888 186.141906 331.955888 183.345198 
C 331.955888 180.548489 330.844744 177.86595 328.867172 175.888378 
C 326.889601 173.910807 324.207062 172.799663 321.410353 172.799663 
C 318.613645 172.799663 315.931105 173.910807 313.953534 175.888378 
C 311.975962 177.86595 310.864818 180.548489 310.864818 183.345198 
C 310.864818 186.141906 311.975962 188.824445 313.953534 190.802017 
C 315.931105 192.779588 318.613645 193.890733 321.410353 193.890733 
z
" clip-path="url(#pe3896e6dc6)" style="fill: #6fa4ff; stroke: #6fa4ff; stroke-width: 2; stroke-linejoin: miter"/>
   </g>
   <g id="patch_25">
    <path d="M 306.345303 244.764247 
L 336.475403 244.764247 
L 336.475403 214.634147 
L 306.345303 214.634147 
z
" clip-path="url(#pe3896e6dc6)" style="fill: #bb8bff; stroke: #bb8bff; stroke-width: 1.5; stroke-linejoin: miter"/>
   </g>
   <g id="patch_26">
    <path d="M 367.764352 95.156714 
C 368.962942 95.156714 370.112601 94.680509 370.960132 93.832979 
C 371.807663 92.985448 372.283867 91.835788 372.283867 90.637199 
C 372.283867 89.43861 371.807663 88.28895 370.960132 87.441419 
C 370.112601 86.593889 368.962942 86.117684 367.764352 86.117684 
C 366.565763 86.117684 365.416103 86.593889 364.568573 87.441419 
C 363.721042 88.28895 363.244837 89.43861 363.244837 90.637199 
C 363.244837 91.835788 363.721042 92.985448 364.568573 93.832979 
C 365.416103 94.680509 366.565763 95.156714 367.764352 95.156714 
z
" clip-path="url(#pe3896e6dc6)" style="fill: #6fa4ff; stroke: #6fa4ff; stroke-width: 1.5; stroke-linejoin: miter"/>
   </g>
   <g id="patch_27">
    <path d="M 367.764352 147.536733 
C 370.561061 147.536733 373.2436 146.425589 375.221172 144.448017 
C 377.198743 142.470446 378.309887 139.787907 378.309887 136.991198 
C 378.309887 134.19449 377.198743 131.511951 375.221172 129.534379 
C 373.2436 127.556807 370.561061 126.445663 367.764352 126.445663 
C 364.967644 126.445663 362.285105 127.556807 360.307533 129.534379 
C 358.329962 131.511951 357.218818 134.19449 357.218818 136.991198 
C 357.218818 139.787907 358.329962 142.470446 360.307533 144.448017 
C 362.285105 146.425589 364.967644 147.536733 367.764352 147.536733 
z
" clip-path="url(#pe3896e6dc6)" style="fill: #6fa4ff; stroke: #6fa4ff; stroke-width: 2; stroke-linejoin: miter"/>
   </g>
   <g id="patch_28">
    <path d="M 352.699303 198.410247 
L 382.829402 198.410247 
L 382.829402 168.280148 
L 352.699303 168.280148 
z
" clip-path="url(#pe3896e6dc6)" style="fill: #bb8bff; stroke: #bb8bff; stroke-width: 1.5; stroke-linejoin: miter"/>
   </g>
   <g id="patch_29">
    <path d="M 414.118352 48.802714 
C 415.316941 48.802714 416.466601 48.32651 417.314131 47.478979 
C 418.161662 46.631448 418.637867 45.481789 418.637867 44.2832 
C 418.637867 43.08461 418.161662 41.934951 417.314131 41.08742 
C 416.466601 40.239889 415.316941 39.763685 414.118352 39.763685 
C 412.919762 39.763685 411.770103 40.239889 410.922572 41.08742 
C 410.075041 41.934951 409.598837 43.08461 409.598837 44.2832 
C 409.598837 45.481789 410.075041 46.631448 410.922572 47.478979 
C 411.770103 48.32651 412.919762 48.802714 414.118352 48.802714 
z
" clip-path="url(#pe3896e6dc6)" style="fill: #6fa4ff; stroke: #6fa4ff; stroke-width: 1.5; stroke-linejoin: miter"/>
   </g>
   <g id="patch_30">
    <path d="M 414.118352 101.182734 
C 416.91506 101.182734 419.597599 100.07159 421.575171 98.094018 
C 423.552743 96.116447 424.663887 93.433907 424.663887 90.637199 
C 424.663887 87.84049 423.552743 85.157951 421.575171 83.18038 
C 419.597599 81.202808 416.91506 80.091664 414.118352 80.091664 
C 411.321643 80.091664 408.639104 81.202808 406.661533 83.18038 
C 404.683961 85.157951 403.572817 87.84049 403.572817 90.637199 
C 403.572817 93.433907 404.683961 96.116447 406.661533 98.094018 
C 408.639104 100.07159 411.321643 101.182734 414.118352 101.182734 
z
" clip-path="url(#pe3896e6dc6)" style="fill: #6fa4ff; stroke: #6fa4ff; stroke-width: 2; stroke-linejoin: miter"/>
   </g>
   <g id="patch_31">
    <path d="M 399.053302 152.056248 
L 429.183402 152.056248 
L 429.183402 121.926148 
L 399.053302 121.926148 
z
" clip-path="url(#pe3896e6dc6)" style="fill: #bb8bff; stroke: #bb8bff; stroke-width: 1.5; stroke-linejoin: miter"/>
   </g>
   <g id="patch_32">
    <path d="M 414.118352 187.864713 
C 415.316941 187.864713 416.466601 187.388508 417.314131 186.540977 
C 418.161662 185.693447 418.637867 184.543787 418.637867 183.345198 
C 418.637867 182.146608 418.161662 180.996949 417.314131 180.149418 
C 416.466601 179.301887 415.316941 178.825683 414.118352 178.825683 
C 412.919762 178.825683 411.770103 179.301887 410.922572 180.149418 
C 410.075041 180.996949 409.598837 182.146608 409.598837 183.345198 
C 409.598837 184.543787 410.075041 185.693447 410.922572 186.540977 
C 411.770103 187.388508 412.919762 187.864713 414.118352 187.864713 
z
" clip-path="url(#pe3896e6dc6)" style="fill: #6fa4ff; stroke: #6fa4ff; stroke-width: 1.5; stroke-linejoin: miter"/>
   </g>
   <g id="patch_33">
    <path d="M 414.118352 240.244732 
C 416.91506 240.244732 419.597599 239.133588 421.575171 237.156016 
C 423.552743 235.178445 424.663887 232.495906 424.663887 229.699197 
C 424.663887 226.902489 423.552743 224.219949 421.575171 222.242378 
C 419.597599 220.264806 416.91506 219.153662 414.118352 219.153662 
C 411.321643 219.153662 408.639104 220.264806 406.661533 222.242378 
C 404.683961 224.219949 403.572817 226.902489 403.572817 229.699197 
C 403.572817 232.495906 404.683961 235.178445 406.661533 237.156016 
C 408.639104 239.133588 411.321643 240.244732 414.118352 240.244732 
z
" clip-path="url(#pe3896e6dc6)" style="fill: #6fa4ff; stroke: #6fa4ff; stroke-width: 2; stroke-linejoin: miter"/>
   </g>
   <g id="patch_34">
    <path d="M 445.407301 59.348249 
L 475.537401 59.348249 
L 475.537401 29.21815 
L 445.407301 29.21815 
z
" clip-path="url(#pe3896e6dc6)" style="fill: #bb8bff; stroke: #bb8bff; stroke-width: 1.5; stroke-linejoin: miter"/>
   </g>
   <g id="patch_35">
    <path d="M 445.407301 105.702249 
L 475.537401 105.702249 
L 475.537401 75.572149 
L 445.407301 75.572149 
z
" clip-path="url(#pe3896e6dc6)" style="fill: #bb8bff; stroke: #bb8bff; stroke-width: 1.5; stroke-linejoin: miter"/>
   </g>
   <g id="patch_36">
    <path d="M 460.472351 141.510713 
C 461.670941 141.510713 462.8206 141.034509 463.668131 140.186978 
C 464.515662 139.339447 464.991866 138.189788 464.991866 136.991198 
C 464.991866 135.792609 464.515662 134.642949 463.668131 133.795419 
C 462.8206 132.947888 461.670941 132.471683 460.472351 132.471683 
C 459.273762 132.471683 458.124102 132.947888 457.276572 133.795419 
C 456.429041 134.642949 455.952836 135.792609 455.952836 136.991198 
C 455.952836 138.189788 456.429041 139.339447 457.276572 140.186978 
C 458.124102 141.034509 459.273762 141.510713 460.472351 141.510713 
z
" clip-path="url(#pe3896e6dc6)" style="fill: #6fa4ff; stroke: #6fa4ff; stroke-width: 1.5; stroke-linejoin: miter"/>
   </g>
   <g id="patch_37">
    <path d="M 460.472351 193.890733 
C 463.26906 193.890733 465.951599 192.779588 467.92917 190.802017 
C 469.906742 188.824445 471.017886 186.141906 471.017886 183.345198 
C 471.017886 180.548489 469.906742 177.86595 467.92917 175.888378 
C 465.951599 173.910807 463.26906 172.799663 460.472351 172.799663 
C 457.675643 172.799663 454.993104 173.910807 453.015532 175.888378 
C 451.03796 177.86595 449.926816 180.548489 449.926816 183.345198 
C 449.926816 186.141906 451.03796 188.824445 453.015532 190.802017 
C 454.993104 192.779588 457.675643 193.890733 460.472351 193.890733 
z
" clip-path="url(#pe3896e6dc6)" style="fill: #6fa4ff; stroke: #6fa4ff; stroke-width: 2; stroke-linejoin: miter"/>
   </g>
   <g id="patch_38">
    <path d="M 445.407301 244.764247 
L 475.537401 244.764247 
L 475.537401 214.634147 
L 445.407301 214.634147 
z
" clip-path="url(#pe3896e6dc6)" style="fill: #bb8bff; stroke: #bb8bff; stroke-width: 1.5; stroke-linejoin: miter"/>
   </g>
   <g id="patch_39">
    <path d="M 506.826351 95.156714 
C 508.02494 95.156714 509.1746 94.680509 510.02213 93.832979 
C 510.869661 92.985448 511.345866 91.835788 511.345866 90.637199 
C 511.345866 89.43861 510.869661 88.28895 510.02213 87.441419 
C 509.1746 86.593889 508.02494 86.117684 506.826351 86.117684 
C 505.627761 86.117684 504.478102 86.593889 503.630571 87.441419 
C 502.78304 88.28895 502.306836 89.43861 502.306836 90.637199 
C 502.306836 91.835788 502.78304 92.985448 503.630571 93.832979 
C 504.478102 94.680509 505.627761 95.156714 506.826351 95.156714 
z
" clip-path="url(#pe3896e6dc6)" style="fill: #6fa4ff; stroke: #6fa4ff; stroke-width: 1.5; stroke-linejoin: miter"/>
   </g>
   <g id="patch_40">
    <path d="M 506.826351 147.536733 
C 509.623059 147.536733 512.305598 146.425589 514.28317 144.448017 
C 516.260741 142.470446 517.371885 139.787907 517.371885 136.991198 
C 517.371885 134.19449 516.260741 131.511951 514.28317 129.534379 
C 512.305598 127.556807 509.623059 126.445663 506.826351 126.445663 
C 504.029642 126.445663 501.347103 127.556807 499.369531 129.534379 
C 497.39196 131.511951 496.280816 134.19449 496.280816 136.991198 
C 496.280816 139.787907 497.39196 142.470446 499.369531 144.448017 
C 501.347103 146.425589 504.029642 147.536733 506.826351 147.536733 
z
" clip-path="url(#pe3896e6dc6)" style="fill: #6fa4ff; stroke: #6fa4ff; stroke-width: 2; stroke-linejoin: miter"/>
   </g>
   <g id="patch_41">
    <path d="M 491.761301 198.410247 
L 521.8914 198.410247 
L 521.8914 168.280148 
L 491.761301 168.280148 
z
" clip-path="url(#pe3896e6dc6)" style="fill: #bb8bff; stroke: #bb8bff; stroke-width: 1.5; stroke-linejoin: miter"/>
   </g>
   <g id="patch_42">
    <path d="M 553.18035 48.802714 
C 554.378939 48.802714 555.528599 48.32651 556.37613 47.478979 
C 557.22366 46.631448 557.699865 45.481789 557.699865 44.2832 
C 557.699865 43.08461 557.22366 41.934951 556.37613 41.08742 
C 555.528599 40.239889 554.378939 39.763685 553.18035 39.763685 
C 551.981761 39.763685 550.832101 40.239889 549.98457 41.08742 
C 549.13704 41.934951 548.660835 43.08461 548.660835 44.2832 
C 548.660835 45.481789 549.13704 46.631448 549.98457 47.478979 
C 550.832101 48.32651 551.981761 48.802714 553.18035 48.802714 
z
" clip-path="url(#pe3896e6dc6)" style="fill: #6fa4ff; stroke: #6fa4ff; stroke-width: 1.5; stroke-linejoin: miter"/>
   </g>
   <g id="patch_43">
    <path d="M 553.18035 101.182734 
C 555.977059 101.182734 558.659598 100.07159 560.637169 98.094018 
C 562.614741 96.116447 563.725885 93.433907 563.725885 90.637199 
C 563.725885 87.84049 562.614741 85.157951 560.637169 83.18038 
C 558.659598 81.202808 555.977059 80.091664 553.18035 80.091664 
C 550.383641 80.091664 547.701102 81.202808 545.723531 83.18038 
C 543.745959 85.157951 542.634815 87.84049 542.634815 90.637199 
C 542.634815 93.433907 543.745959 96.116447 545.723531 98.094018 
C 547.701102 100.07159 550.383641 101.182734 553.18035 101.182734 
z
" clip-path="url(#pe3896e6dc6)" style="fill: #6fa4ff; stroke: #6fa4ff; stroke-width: 2; stroke-linejoin: miter"/>
   </g>
   <g id="patch_44">
    <path d="M 538.1153 152.056248 
L 568.2454 152.056248 
L 568.2454 121.926148 
L 538.1153 121.926148 
z
" clip-path="url(#pe3896e6dc6)" style="fill: #bb8bff; stroke: #bb8bff; stroke-width: 1.5; stroke-linejoin: miter"/>
   </g>
   <g id="patch_45">
    <path d="M 553.18035 187.864713 
C 554.378939 187.864713 555.528599 187.388508 556.37613 186.540977 
C 557.22366 185.693447 557.699865 184.543787 557.699865 183.345198 
C 557.699865 182.146608 557.22366 180.996949 556.37613 180.149418 
C 555.528599 179.301887 554.378939 178.825683 553.18035 178.825683 
C 551.981761 178.825683 550.832101 179.301887 549.98457 180.149418 
C 549.13704 180.996949 548.660835 182.146608 548.660835 183.345198 
C 548.660835 184.543787 549.13704 185.693447 549.98457 186.540977 
C 550.832101 187.388508 551.981761 187.864713 553.18035 187.864713 
z
" clip-path="url(#pe3896e6dc6)" style="fill: #6fa4ff; stroke: #6fa4ff; stroke-width: 1.5; stroke-linejoin: miter"/>
   </g>
   <g id="patch_46">
    <path d="M 553.18035 240.244732 
C 555.977059 240.244732 558.659598 239.133588 560.637169 237.156016 
C 562.614741 235.178445 563.725885 232.495906 563.725885 229.699197 
C 563.725885 226.902489 562.614741 224.219949 560.637169 222.242378 
C 558.659598 220.264806 555.977059 219.153662 553.18035 219.153662 
C 550.383641 219.153662 547.701102 220.264806 545.723531 222.242378 
C 543.745959 224.219949 542.634815 226.902489 542.634815 229.699197 
C 542.634815 232.495906 543.745959 235.178445 545.723531 237.156016 
C 547.701102 239.133588 550.383641 240.244732 553.18035 240.244732 
z
" clip-path="url(#pe3896e6dc6)" style="fill: #6fa4ff; stroke: #6fa4ff; stroke-width: 2; stroke-linejoin: miter"/>
   </g>
   <g id="patch_47">
    <path d="M 584.4693 59.348249 
L 614.599399 59.348249 
L 614.599399 29.21815 
L 584.4693 29.21815 
z
" clip-path="url(#pe3896e6dc6)" style="fill: #bb8bff; stroke: #bb8bff; stroke-width: 1.5; stroke-linejoin: miter"/>
   </g>
   <g id="patch_48">
    <path d="M 584.4693 105.702249 
L 614.599399 105.702249 
L 614.599399 75.572149 
L 584.4693 75.572149 
z
" clip-path="url(#pe3896e6dc6)" style="fill: #bb8bff; stroke: #bb8bff; stroke-width: 1.5; stroke-linejoin: miter"/>
   </g>
   <g id="patch_49">
    <path d="M 599.534349 141.510713 
C 600.732939 141.510713 601.882598 141.034509 602.730129 140.186978 
C 603.57766 139.339447 604.053864 138.189788 604.053864 136.991198 
C 604.053864 135.792609 603.57766 134.642949 602.730129 133.795419 
C 601.882598 132.947888 600.732939 132.471683 599.534349 132.471683 
C 598.33576 132.471683 597.1861 132.947888 596.33857 133.795419 
C 595.491039 134.642949 595.014834 135.792609 595.014834 136.991198 
C 595.014834 138.189788 595.491039 139.339447 596.33857 140.186978 
C 597.1861 141.034509 598.33576 141.510713 599.534349 141.510713 
z
" clip-path="url(#pe3896e6dc6)" style="fill: #6fa4ff; stroke: #6fa4ff; stroke-width: 1.5; stroke-linejoin: miter"/>
   </g>
   <g id="patch_50">
    <path d="M 599.534349 193.890733 
C 602.331058 193.890733 605.013597 192.779588 606.991169 190.802017 
C 608.96874 188.824445 610.079884 186.141906 610.079884 183.345198 
C 610.079884 180.548489 608.96874 177.86595 606.991169 175.888378 
C 605.013597 173.910807 602.331058 172.799663 599.534349 172.799663 
C 596.737641 172.799663 594.055102 173.910807 592.07753 175.888378 
C 590.099959 177.86595 588.988814 180.548489 588.988814 183.345198 
C 588.988814 186.141906 590.099959 188.824445 592.07753 190.802017 
C 594.055102 192.779588 596.737641 193.890733 599.534349 193.890733 
z
" clip-path="url(#pe3896e6dc6)" style="fill: #6fa4ff; stroke: #6fa4ff; stroke-width: 2; stroke-linejoin: miter"/>
   </g>
   <g id="patch_51">
    <path d="M 584.4693 244.764247 
L 614.599399 244.764247 
L 614.599399 214.634147 
L 584.4693 214.634147 
z
" clip-path="url(#pe3896e6dc6)" style="fill: #bb8bff; stroke: #bb8bff; stroke-width: 1.5; stroke-linejoin: miter"/>
   </g>
   <g id="patch_52">
    <path d="M 645.888349 95.156714 
C 647.086938 95.156714 648.236598 94.680509 649.084128 93.832979 
C 649.931659 92.985448 650.407864 91.835788 650.407864 90.637199 
C 650.407864 89.43861 649.931659 88.28895 649.084128 87.441419 
C 648.236598 86.593889 647.086938 86.117684 645.888349 86.117684 
C 644.689759 86.117684 643.5401 86.593889 642.692569 87.441419 
C 641.845038 88.28895 641.368834 89.43861 641.368834 90.637199 
C 641.368834 91.835788 641.845038 92.985448 642.692569 93.832979 
C 643.5401 94.680509 644.689759 95.156714 645.888349 95.156714 
z
" clip-path="url(#pe3896e6dc6)" style="fill: #6fa4ff; stroke: #6fa4ff; stroke-width: 1.5; stroke-linejoin: miter"/>
   </g>
   <g id="patch_53">
    <path d="M 645.888349 147.536733 
C 648.685057 147.536733 651.367596 146.425589 653.345168 144.448017 
C 655.32274 142.470446 656.433884 139.787907 656.433884 136.991198 
C 656.433884 134.19449 655.32274 131.511951 653.345168 129.534379 
C 651.367596 127.556807 648.685057 126.445663 645.888349 126.445663 
C 643.09164 126.445663 640.409101 127.556807 638.43153 129.534379 
C 636.453958 131.511951 635.342814 134.19449 635.342814 136.991198 
C 635.342814 139.787907 636.453958 142.470446 638.43153 144.448017 
C 640.409101 146.425589 643.09164 147.536733 645.888349 147.536733 
z
" clip-path="url(#pe3896e6dc6)" style="fill: #6fa4ff; stroke: #6fa4ff; stroke-width: 2; stroke-linejoin: miter"/>
   </g>
   <g id="patch_54">
    <path d="M 630.823299 198.410247 
L 660.953399 198.410247 
L 660.953399 168.280148 
L 630.823299 168.280148 
z
" clip-path="url(#pe3896e6dc6)" style="fill: #bb8bff; stroke: #bb8bff; stroke-width: 1.5; stroke-linejoin: miter"/>
   </g>
   <g id="patch_55">
    <path d="M 692.242348 48.802714 
C 693.440937 48.802714 694.590597 48.32651 695.438128 47.478979 
C 696.285658 46.631448 696.761863 45.481789 696.761863 44.2832 
C 696.761863 43.08461 696.285658 41.934951 695.438128 41.08742 
C 694.590597 40.239889 693.440937 39.763685 692.242348 39.763685 
C 691.043759 39.763685 689.894099 40.239889 689.046568 41.08742 
C 688.199038 41.934951 687.722833 43.08461 687.722833 44.2832 
C 687.722833 45.481789 688.199038 46.631448 689.046568 47.478979 
C 689.894099 48.32651 691.043759 48.802714 692.242348 48.802714 
z
" clip-path="url(#pe3896e6dc6)" style="fill: #6fa4ff; stroke: #6fa4ff; stroke-width: 1.5; stroke-linejoin: miter"/>
   </g>
   <g id="patch_56">
    <path d="M 692.242348 101.182734 
C 695.039057 101.182734 697.721596 100.07159 699.699167 98.094018 
C 701.676739 96.116447 702.787883 93.433907 702.787883 90.637199 
C 702.787883 87.84049 701.676739 85.157951 699.699167 83.18038 
C 697.721596 81.202808 695.039057 80.091664 692.242348 80.091664 
C 689.44564 80.091664 686.7631 81.202808 684.785529 83.18038 
C 682.807957 85.157951 681.696813 87.84049 681.696813 90.637199 
C 681.696813 93.433907 682.807957 96.116447 684.785529 98.094018 
C 686.7631 100.07159 689.44564 101.182734 692.242348 101.182734 
z
" clip-path="url(#pe3896e6dc6)" style="fill: #6fa4ff; stroke: #6fa4ff; stroke-width: 2; stroke-linejoin: miter"/>
   </g>
   <g id="patch_57">
    <path d="M 677.177298 152.056248 
L 707.307398 152.056248 
L 707.307398 121.926148 
L 677.177298 121.926148 
z
" clip-path="url(#pe3896e6dc6)" style="fill: #bb8bff; stroke: #bb8bff; stroke-width: 1.5; stroke-linejoin: miter"/>
   </g>
   <g id="patch_58">
    <path d="M 692.242348 187.864713 
C 693.440937 187.864713 694.590597 187.388508 695.438128 186.540977 
C 696.285658 185.693447 696.761863 184.543787 696.761863 183.345198 
C 696.761863 182.146608 696.285658 180.996949 695.438128 180.149418 
C 694.590597 179.301887 693.440937 178.825683 692.242348 178.825683 
C 691.043759 178.825683 689.894099 179.301887 689.046568 180.149418 
C 688.199038 180.996949 687.722833 182.146608 687.722833 183.345198 
C 687.722833 184.543787 688.199038 185.693447 689.046568 186.540977 
C 689.894099 187.388508 691.043759 187.864713 692.242348 187.864713 
z
" clip-path="url(#pe3896e6dc6)" style="fill: #6fa4ff; stroke: #6fa4ff; stroke-width: 1.5; stroke-linejoin: miter"/>
   </g>
   <g id="patch_59">
    <path d="M 692.242348 240.244732 
C 695.039057 240.244732 697.721596 239.133588 699.699167 237.156016 
C 701.676739 235.178445 702.787883 232.495906 702.787883 229.699197 
C 702.787883 226.902489 701.676739 224.219949 699.699167 222.242378 
C 697.721596 220.264806 695.039057 219.153662 692.242348 219.153662 
C 689.44564 219.153662 686.7631 220.264806 684.785529 222.242378 
C 682.807957 224.219949 681.696813 226.902489 681.696813 229.699197 
C 681.696813 232.495906 682.807957 235.178445 684.785529 237.156016 
C 686.7631 239.133588 689.44564 240.244732 692.242348 240.244732 
z
" clip-path="url(#pe3896e6dc6)" style="fill: #6fa4ff; stroke: #6fa4ff; stroke-width: 2; stroke-linejoin: miter"/>
   </g>
   <g id="patch_60">
    <path d="M 723.531298 59.348249 
L 753.661397 59.348249 
L 753.661397 29.21815 
L 723.531298 29.21815 
z
" clip-path="url(#pe3896e6dc6)" style="fill: #bb8bff; stroke: #bb8bff; stroke-width: 1.5; stroke-linejoin: miter"/>
   </g>
   <g id="patch_61">
    <path d="M 723.531298 105.702249 
L 753.661397 105.702249 
L 753.661397 75.572149 
L 723.531298 75.572149 
z
" clip-path="url(#pe3896e6dc6)" style="fill: #bb8bff; stroke: #bb8bff; stroke-width: 1.5; stroke-linejoin: miter"/>
   </g>
   <g id="patch_62">
    <path d="M 738.596348 141.510713 
C 739.794937 141.510713 740.944596 141.034509 741.792127 140.186978 
C 742.639658 139.339447 743.115862 138.189788 743.115862 136.991198 
C 743.115862 135.792609 742.639658 134.642949 741.792127 133.795419 
C 740.944596 132.947888 739.794937 132.471683 738.596348 132.471683 
C 737.397758 132.471683 736.248099 132.947888 735.400568 133.795419 
C 734.553037 134.642949 734.076833 135.792609 734.076833 136.991198 
C 734.076833 138.189788 734.553037 139.339447 735.400568 140.186978 
C 736.248099 141.034509 737.397758 141.510713 738.596348 141.510713 
z
" clip-path="url(#pe3896e6dc6)" style="fill: #6fa4ff; stroke: #6fa4ff; stroke-width: 1.5; stroke-linejoin: miter"/>
   </g>
   <g id="patch_63">
    <path d="M 738.596348 193.890733 
C 741.393056 193.890733 744.075595 192.779588 746.053167 190.802017 
C 748.030738 188.824445 749.141882 186.141906 749.141882 183.345198 
C 749.141882 180.548489 748.030738 177.86595 746.053167 175.888378 
C 744.075595 173.910807 741.393056 172.799663 738.596348 172.799663 
C 735.799639 172.799663 733.1171 173.910807 731.139528 175.888378 
C 729.161957 177.86595 728.050813 180.548489 728.050813 183.345198 
C 728.050813 186.141906 729.161957 188.824445 731.139528 190.802017 
C 733.1171 192.779588 735.799639 193.890733 738.596348 193.890733 
z
" clip-path="url(#pe3896e6dc6)" style="fill: #6fa4ff; stroke: #6fa4ff; stroke-width: 2; stroke-linejoin: miter"/>
   </g>
   <g id="patch_64">
    <path d="M 723.531298 244.764247 
L 753.661397 244.764247 
L 753.661397 214.634147 
L 723.531298 214.634147 
z
" clip-path="url(#pe3896e6dc6)" style="fill: #bb8bff; stroke: #bb8bff; stroke-width: 1.5; stroke-linejoin: miter"/>
   </g>
   <g id="patch_65">
    <path d="M 784.950347 95.156714 
C 786.148936 95.156714 787.298596 94.680509 788.146127 93.832979 
C 788.993657 92.985448 789.469862 91.835788 789.469862 90.637199 
C 789.469862 89.43861 788.993657 88.28895 788.146127 87.441419 
C 787.298596 86.593889 786.148936 86.117684 784.950347 86.117684 
C 783.751758 86.117684 782.602098 86.593889 781.754567 87.441419 
C 780.907037 88.28895 780.430832 89.43861 780.430832 90.637199 
C 780.430832 91.835788 780.907037 92.985448 781.754567 93.832979 
C 782.602098 94.680509 783.751758 95.156714 784.950347 95.156714 
z
" clip-path="url(#pe3896e6dc6)" style="fill: #6fa4ff; stroke: #6fa4ff; stroke-width: 1.5; stroke-linejoin: miter"/>
   </g>
   <g id="patch_66">
    <path d="M 784.950347 147.536733 
C 787.747055 147.536733 790.429595 146.425589 792.407166 144.448017 
C 794.384738 142.470446 795.495882 139.787907 795.495882 136.991198 
C 795.495882 134.19449 794.384738 131.511951 792.407166 129.534379 
C 790.429595 127.556807 787.747055 126.445663 784.950347 126.445663 
C 782.153638 126.445663 779.471099 127.556807 777.493528 129.534379 
C 775.515956 131.511951 774.404812 134.19449 774.404812 136.991198 
C 774.404812 139.787907 775.515956 142.470446 777.493528 144.448017 
C 779.471099 146.425589 782.153638 147.536733 784.950347 147.536733 
z
" clip-path="url(#pe3896e6dc6)" style="fill: #6fa4ff; stroke: #6fa4ff; stroke-width: 2; stroke-linejoin: miter"/>
   </g>
   <g id="patch_67">
    <path d="M 769.885297 198.410247 
L 800.015397 198.410247 
L 800.015397 168.280148 
L 769.885297 168.280148 
z
" clip-path="url(#pe3896e6dc6)" style="fill: #bb8bff; stroke: #bb8bff; stroke-width: 1.5; stroke-linejoin: miter"/>
   </g>
   <g id="patch_68">
    <path d="M 831.304346 48.802714 
C 832.502936 48.802714 833.652595 48.32651 834.500126 47.478979 
C 835.347657 46.631448 835.823861 45.481789 835.823861 44.2832 
C 835.823861 43.08461 835.347657 41.934951 834.500126 41.08742 
C 833.652595 40.239889 832.502936 39.763685 831.304346 39.763685 
C 830.105757 39.763685 828.956097 40.239889 828.108567 41.08742 
C 827.261036 41.934951 826.784831 43.08461 826.784831 44.2832 
C 826.784831 45.481789 827.261036 46.631448 828.108567 47.478979 
C 828.956097 48.32651 830.105757 48.802714 831.304346 48.802714 
z
" clip-path="url(#pe3896e6dc6)" style="fill: #6fa4ff; stroke: #6fa4ff; stroke-width: 1.5; stroke-linejoin: miter"/>
   </g>
   <g id="patch_69">
    <path d="M 831.304346 101.182734 
C 834.101055 101.182734 836.783594 100.07159 838.761165 98.094018 
C 840.738737 96.116447 841.849881 93.433907 841.849881 90.637199 
C 841.849881 87.84049 840.738737 85.157951 838.761165 83.18038 
C 836.783594 81.202808 834.101055 80.091664 831.304346 80.091664 
C 828.507638 80.091664 825.825099 81.202808 823.847527 83.18038 
C 821.869955 85.157951 820.758811 87.84049 820.758811 90.637199 
C 820.758811 93.433907 821.869955 96.116447 823.847527 98.094018 
C 825.825099 100.07159 828.507638 101.182734 831.304346 101.182734 
z
" clip-path="url(#pe3896e6dc6)" style="fill: #6fa4ff; stroke: #6fa4ff; stroke-width: 2; stroke-linejoin: miter"/>
   </g>
   <g id="patch_70">
    <path d="M 816.239296 152.056248 
L 846.369396 152.056248 
L 846.369396 121.926148 
L 816.239296 121.926148 
z
" clip-path="url(#pe3896e6dc6)" style="fill: #bb8bff; stroke: #bb8bff; stroke-width: 1.5; stroke-linejoin: miter"/>
   </g>
   <g id="patch_71">
    <path d="M 862.593296 59.348249 
L 892.723395 59.348249 
L 892.723395 29.21815 
L 862.593296 29.21815 
z
" clip-path="url(#pe3896e6dc6)" style="fill: #bb8bff; stroke: #bb8bff; stroke-width: 1.5; stroke-linejoin: miter"/>
   </g>
   <g id="patch_72">
    <path d="M 862.593296 105.702249 
L 892.723395 105.702249 
L 892.723395 75.572149 
L 862.593296 75.572149 
z
" clip-path="url(#pe3896e6dc6)" style="fill: #bb8bff; stroke: #bb8bff; stroke-width: 1.5; stroke-linejoin: miter"/>
   </g>
   <g id="line2d_26">
    <path d="M 135.994356 235.725217 
L 135.994356 223.673177 
" clip-path="url(#pe3896e6dc6)" style="fill: none; stroke: #ffffff; stroke-width: 2; stroke-linecap: square"/>
   </g>
   <g id="line2d_27">
    <path d="M 129.968336 229.699197 
L 142.020375 229.699197 
" clip-path="url(#pe3896e6dc6)" style="fill: none; stroke: #ffffff; stroke-width: 2; stroke-linecap: square"/>
   </g>
   <g id="line2d_28">
    <path d="M 182.348355 189.371218 
L 182.348355 177.319178 
" clip-path="url(#pe3896e6dc6)" style="fill: none; stroke: #ffffff; stroke-width: 2; stroke-linecap: square"/>
   </g>
   <g id="line2d_29">
    <path d="M 176.322335 183.345198 
L 188.374375 183.345198 
" clip-path="url(#pe3896e6dc6)" style="fill: none; stroke: #ffffff; stroke-width: 2; stroke-linecap: square"/>
   </g>
   <g id="line2d_30">
    <path d="M 228.702354 143.017218 
L 228.702354 130.965178 
" clip-path="url(#pe3896e6dc6)" style="fill: none; stroke: #ffffff; stroke-width: 2; stroke-linecap: square"/>
   </g>
   <g id="line2d_31">
    <path d="M 222.676334 136.991198 
L 234.728374 136.991198 
" clip-path="url(#pe3896e6dc6)" style="fill: none; stroke: #ffffff; stroke-width: 2; stroke-linecap: square"/>
   </g>
   <g id="line2d_32">
    <path d="M 275.056354 96.663219 
L 275.056354 84.611179 
" clip-path="url(#pe3896e6dc6)" style="fill: none; stroke: #ffffff; stroke-width: 2; stroke-linecap: square"/>
   </g>
   <g id="line2d_33">
    <path d="M 269.030334 90.637199 
L 281.082374 90.637199 
" clip-path="url(#pe3896e6dc6)" style="fill: none; stroke: #ffffff; stroke-width: 2; stroke-linecap: square"/>
   </g>
   <g id="line2d_34">
    <path d="M 275.056354 235.725217 
L 275.056354 223.673177 
" clip-path="url(#pe3896e6dc6)" style="fill: none; stroke: #ffffff; stroke-width: 2; stroke-linecap: square"/>
   </g>
   <g id="line2d_35">
    <path d="M 269.030334 229.699197 
L 281.082374 229.699197 
" clip-path="url(#pe3896e6dc6)" style="fill: none; stroke: #ffffff; stroke-width: 2; stroke-linecap: square"/>
   </g>
   <g id="line2d_36">
    <path d="M 321.410353 189.371218 
L 321.410353 177.319178 
" clip-path="url(#pe3896e6dc6)" style="fill: none; stroke: #ffffff; stroke-width: 2; stroke-linecap: square"/>
   </g>
   <g id="line2d_37">
    <path d="M 315.384333 183.345198 
L 327.436373 183.345198 
" clip-path="url(#pe3896e6dc6)" style="fill: none; stroke: #ffffff; stroke-width: 2; stroke-linecap: square"/>
   </g>
   <g id="line2d_38">
    <path d="M 367.764352 143.017218 
L 367.764352 130.965178 
" clip-path="url(#pe3896e6dc6)" style="fill: none; stroke: #ffffff; stroke-width: 2; stroke-linecap: square"/>
   </g>
   <g id="line2d_39">
    <path d="M 361.738333 136.991198 
L 373.790372 136.991198 
" clip-path="url(#pe3896e6dc6)" style="fill: none; stroke: #ffffff; stroke-width: 2; stroke-linecap: square"/>
   </g>
   <g id="line2d_40">
    <path d="M 414.118352 96.663219 
L 414.118352 84.611179 
" clip-path="url(#pe3896e6dc6)" style="fill: none; stroke: #ffffff; stroke-width: 2; stroke-linecap: square"/>
   </g>
   <g id="line2d_41">
    <path d="M 408.092332 90.637199 
L 420.144372 90.637199 
" clip-path="url(#pe3896e6dc6)" style="fill: none; stroke: #ffffff; stroke-width: 2; stroke-linecap: square"/>
   </g>
   <g id="line2d_42">
    <path d="M 414.118352 235.725217 
L 414.118352 223.673177 
" clip-path="url(#pe3896e6dc6)" style="fill: none; stroke: #ffffff; stroke-width: 2; stroke-linecap: square"/>
   </g>
   <g id="line2d_43">
    <path d="M 408.092332 229.699197 
L 420.144372 229.699197 
" clip-path="url(#pe3896e6dc6)" style="fill: none; stroke: #ffffff; stroke-width: 2; stroke-linecap: square"/>
   </g>
   <g id="line2d_44">
    <path d="M 460.472351 189.371218 
L 460.472351 177.319178 
" clip-path="url(#pe3896e6dc6)" style="fill: none; stroke: #ffffff; stroke-width: 2; stroke-linecap: square"/>
   </g>
   <g id="line2d_45">
    <path d="M 454.446331 183.345198 
L 466.498371 183.345198 
" clip-path="url(#pe3896e6dc6)" style="fill: none; stroke: #ffffff; stroke-width: 2; stroke-linecap: square"/>
   </g>
   <g id="line2d_46">
    <path d="M 506.826351 143.017218 
L 506.826351 130.965178 
" clip-path="url(#pe3896e6dc6)" style="fill: none; stroke: #ffffff; stroke-width: 2; stroke-linecap: square"/>
   </g>
   <g id="line2d_47">
    <path d="M 500.800331 136.991198 
L 512.852371 136.991198 
" clip-path="url(#pe3896e6dc6)" style="fill: none; stroke: #ffffff; stroke-width: 2; stroke-linecap: square"/>
   </g>
   <g id="line2d_48">
    <path d="M 553.18035 96.663219 
L 553.18035 84.611179 
" clip-path="url(#pe3896e6dc6)" style="fill: none; stroke: #ffffff; stroke-width: 2; stroke-linecap: square"/>
   </g>
   <g id="line2d_49">
    <path d="M 547.15433 90.637199 
L 559.20637 90.637199 
" clip-path="url(#pe3896e6dc6)" style="fill: none; stroke: #ffffff; stroke-width: 2; stroke-linecap: square"/>
   </g>
   <g id="line2d_50">
    <path d="M 553.18035 235.725217 
L 553.18035 223.673177 
" clip-path="url(#pe3896e6dc6)" style="fill: none; stroke: #ffffff; stroke-width: 2; stroke-linecap: square"/>
   </g>
   <g id="line2d_51">
    <path d="M 547.15433 229.699197 
L 559.20637 229.699197 
" clip-path="url(#pe3896e6dc6)" style="fill: none; stroke: #ffffff; stroke-width: 2; stroke-linecap: square"/>
   </g>
   <g id="line2d_52">
    <path d="M 599.534349 189.371218 
L 599.534349 177.319178 
" clip-path="url(#pe3896e6dc6)" style="fill: none; stroke: #ffffff; stroke-width: 2; stroke-linecap: square"/>
   </g>
   <g id="line2d_53">
    <path d="M 593.508329 183.345198 
L 605.560369 183.345198 
" clip-path="url(#pe3896e6dc6)" style="fill: none; stroke: #ffffff; stroke-width: 2; stroke-linecap: square"/>
   </g>
   <g id="line2d_54">
    <path d="M 645.888349 143.017218 
L 645.888349 130.965178 
" clip-path="url(#pe3896e6dc6)" style="fill: none; stroke: #ffffff; stroke-width: 2; stroke-linecap: square"/>
   </g>
   <g id="line2d_55">
    <path d="M 639.862329 136.991198 
L 651.914369 136.991198 
" clip-path="url(#pe3896e6dc6)" style="fill: none; stroke: #ffffff; stroke-width: 2; stroke-linecap: square"/>
   </g>
   <g id="line2d_56">
    <path d="M 692.242348 96.663219 
L 692.242348 84.611179 
" clip-path="url(#pe3896e6dc6)" style="fill: none; stroke: #ffffff; stroke-width: 2; stroke-linecap: square"/>
   </g>
   <g id="line2d_57">
    <path d="M 686.216328 90.637199 
L 698.268368 90.637199 
" clip-path="url(#pe3896e6dc6)" style="fill: none; stroke: #ffffff; stroke-width: 2; stroke-linecap: square"/>
   </g>
   <g id="line2d_58">
    <path d="M 692.242348 235.725217 
L 692.242348 223.673177 
" clip-path="url(#pe3896e6dc6)" style="fill: none; stroke: #ffffff; stroke-width: 2; stroke-linecap: square"/>
   </g>
   <g id="line2d_59">
    <path d="M 686.216328 229.699197 
L 698.268368 229.699197 
" clip-path="url(#pe3896e6dc6)" style="fill: none; stroke: #ffffff; stroke-width: 2; stroke-linecap: square"/>
   </g>
   <g id="line2d_60">
    <path d="M 738.596348 189.371218 
L 738.596348 177.319178 
" clip-path="url(#pe3896e6dc6)" style="fill: none; stroke: #ffffff; stroke-width: 2; stroke-linecap: square"/>
   </g>
   <g id="line2d_61">
    <path d="M 732.570328 183.345198 
L 744.622367 183.345198 
" clip-path="url(#pe3896e6dc6)" style="fill: none; stroke: #ffffff; stroke-width: 2; stroke-linecap: square"/>
   </g>
   <g id="line2d_62">
    <path d="M 784.950347 143.017218 
L 784.950347 130.965178 
" clip-path="url(#pe3896e6dc6)" style="fill: none; stroke: #ffffff; stroke-width: 2; stroke-linecap: square"/>
   </g>
   <g id="line2d_63">
    <path d="M 778.924327 136.991198 
L 790.976367 136.991198 
" clip-path="url(#pe3896e6dc6)" style="fill: none; stroke: #ffffff; stroke-width: 2; stroke-linecap: square"/>
   </g>
   <g id="line2d_64">
    <path d="M 831.304346 96.663219 
L 831.304346 84.611179 
" clip-path="url(#pe3896e6dc6)" style="fill: none; stroke: #ffffff; stroke-width: 2; stroke-linecap: square"/>
   </g>
   <g id="line2d_65">
    <path d="M 825.278326 90.637199 
L 837.330366 90.637199 
" clip-path="url(#pe3896e6dc6)" style="fill: none; stroke: #ffffff; stroke-width: 2; stroke-linecap: square"/>
   </g>
   <g id="text_1">
    <g clip-path="url(#pe3896e6dc6)">
     <!-- ${q}_{0}$ -->
     <g transform="translate(37.300897 48.734176) scale(0.1625 -0.1625)">
      <defs>
       <path id="DejaVuSans-Oblique-71" d="M 2669 525 
Q 2438 222 2123 65 
Q 1809 -91 1428 -91 
Q 897 -91 595 267 
Q 294 625 294 1253 
Q 294 1759 480 2231 
Q 666 2703 1013 3078 
Q 1238 3322 1530 3453 
Q 1822 3584 2144 3584 
Q 2531 3584 2781 3431 
Q 3031 3278 3144 2969 
L 3244 3494 
L 3822 3494 
L 2888 -1319 
L 2309 -1319 
L 2669 525 
z
M 891 1338 
Q 891 875 1084 633 
Q 1278 391 1644 391 
Q 2188 391 2572 911 
Q 2956 1431 2956 2175 
Q 2956 2625 2757 2864 
Q 2559 3103 2188 3103 
Q 1916 3103 1684 2976 
Q 1453 2850 1281 2606 
Q 1100 2350 995 2006 
Q 891 1663 891 1338 
z
" transform="scale(0.015625)"/>
       <path id="DejaVuSans-30" d="M 2034 4250 
Q 1547 4250 1301 3770 
Q 1056 3291 1056 2328 
Q 1056 1369 1301 889 
Q 1547 409 2034 409 
Q 2525 409 2770 889 
Q 3016 1369 3016 2328 
Q 3016 3291 2770 3770 
Q 2525 4250 2034 4250 
z
M 2034 4750 
Q 2819 4750 3233 4129 
Q 3647 3509 3647 2328 
Q 3647 1150 3233 529 
Q 2819 -91 2034 -91 
Q 1250 -91 836 529 
Q 422 1150 422 2328 
Q 422 3509 836 4129 
Q 1250 4750 2034 4750 
z
" transform="scale(0.015625)"/>
      </defs>
      <use xlink:href="#DejaVuSans-Oblique-71"/>
      <use xlink:href="#DejaVuSans-30" transform="translate(63.476562 -16.40625) scale(0.7)"/>
     </g>
    </g>
   </g>
   <g id="text_2">
    <g clip-path="url(#pe3896e6dc6)">
     <!-- ${q}_{1}$ -->
     <g transform="translate(37.300897 95.088175) scale(0.1625 -0.1625)">
      <defs>
       <path id="DejaVuSans-31" d="M 794 531 
L 1825 531 
L 1825 4091 
L 703 3866 
L 703 4441 
L 1819 4666 
L 2450 4666 
L 2450 531 
L 3481 531 
L 3481 0 
L 794 0 
L 794 531 
z
" transform="scale(0.015625)"/>
      </defs>
      <use xlink:href="#DejaVuSans-Oblique-71"/>
      <use xlink:href="#DejaVuSans-31" transform="translate(63.476562 -16.40625) scale(0.7)"/>
     </g>
    </g>
   </g>
   <g id="text_3">
    <g clip-path="url(#pe3896e6dc6)">
     <!-- ${q}_{2}$ -->
     <g transform="translate(37.300897 141.442175) scale(0.1625 -0.1625)">
      <defs>
       <path id="DejaVuSans-32" d="M 1228 531 
L 3431 531 
L 3431 0 
L 469 0 
L 469 531 
Q 828 903 1448 1529 
Q 2069 2156 2228 2338 
Q 2531 2678 2651 2914 
Q 2772 3150 2772 3378 
Q 2772 3750 2511 3984 
Q 2250 4219 1831 4219 
Q 1534 4219 1204 4116 
Q 875 4013 500 3803 
L 500 4441 
Q 881 4594 1212 4672 
Q 1544 4750 1819 4750 
Q 2544 4750 2975 4387 
Q 3406 4025 3406 3419 
Q 3406 3131 3298 2873 
Q 3191 2616 2906 2266 
Q 2828 2175 2409 1742 
Q 1991 1309 1228 531 
z
" transform="scale(0.015625)"/>
      </defs>
      <use xlink:href="#DejaVuSans-Oblique-71"/>
      <use xlink:href="#DejaVuSans-32" transform="translate(63.476562 -16.40625) scale(0.7)"/>
     </g>
    </g>
   </g>
   <g id="text_4">
    <g clip-path="url(#pe3896e6dc6)">
     <!-- ${q}_{3}$ -->
     <g transform="translate(37.300897 187.796174) scale(0.1625 -0.1625)">
      <defs>
       <path id="DejaVuSans-33" d="M 2597 2516 
Q 3050 2419 3304 2112 
Q 3559 1806 3559 1356 
Q 3559 666 3084 287 
Q 2609 -91 1734 -91 
Q 1441 -91 1130 -33 
Q 819 25 488 141 
L 488 750 
Q 750 597 1062 519 
Q 1375 441 1716 441 
Q 2309 441 2620 675 
Q 2931 909 2931 1356 
Q 2931 1769 2642 2001 
Q 2353 2234 1838 2234 
L 1294 2234 
L 1294 2753 
L 1863 2753 
Q 2328 2753 2575 2939 
Q 2822 3125 2822 3475 
Q 2822 3834 2567 4026 
Q 2313 4219 1838 4219 
Q 1578 4219 1281 4162 
Q 984 4106 628 3988 
L 628 4550 
Q 988 4650 1302 4700 
Q 1616 4750 1894 4750 
Q 2613 4750 3031 4423 
Q 3450 4097 3450 3541 
Q 3450 3153 3228 2886 
Q 3006 2619 2597 2516 
z
" transform="scale(0.015625)"/>
      </defs>
      <use xlink:href="#DejaVuSans-Oblique-71"/>
      <use xlink:href="#DejaVuSans-33" transform="translate(63.476562 -16.40625) scale(0.7)"/>
     </g>
    </g>
   </g>
   <g id="text_5">
    <g clip-path="url(#pe3896e6dc6)">
     <!-- ${q}_{4}$ -->
     <g transform="translate(37.300897 234.150174) scale(0.1625 -0.1625)">
      <defs>
       <path id="DejaVuSans-34" d="M 2419 4116 
L 825 1625 
L 2419 1625 
L 2419 4116 
z
M 2253 4666 
L 3047 4666 
L 3047 1625 
L 3713 1625 
L 3713 1100 
L 3047 1100 
L 3047 0 
L 2419 0 
L 2419 1100 
L 313 1100 
L 313 1709 
L 2253 4666 
z
" transform="scale(0.015625)"/>
      </defs>
      <use xlink:href="#DejaVuSans-Oblique-71"/>
      <use xlink:href="#DejaVuSans-34" transform="translate(63.476562 -16.40625) scale(0.7)"/>
     </g>
    </g>
   </g>
   <g id="text_6">
    <g clip-path="url(#pe3896e6dc6)">
     <!-- [0] -->
     <g transform="translate(81.526606 55.529729) scale(0.08 -0.08)">
      <defs>
       <path id="DejaVuSans-3b8" d="M 2953 2219 
L 963 2219 
Q 1009 1284 1225 888 
Q 1494 400 1959 400 
Q 2428 400 2688 891 
Q 2916 1322 2953 2219 
z
M 2944 2750 
Q 2856 3638 2688 3950 
Q 2419 4444 1959 4444 
Q 1481 4444 1228 3956 
Q 1028 3563 969 2750 
L 2944 2750 
z
M 1959 4913 
Q 2709 4913 3138 4250 
Q 3566 3591 3566 2422 
Q 3566 1256 3138 594 
Q 2709 -72 1959 -72 
Q 1206 -72 781 594 
Q 353 1256 353 2422 
Q 353 3591 781 4250 
Q 1206 4913 1959 4913 
z
" transform="scale(0.015625)"/>
       <path id="DejaVuSans-5b" d="M 550 4863 
L 1875 4863 
L 1875 4416 
L 1125 4416 
L 1125 -397 
L 1875 -397 
L 1875 -844 
L 550 -844 
L 550 4863 
z
" transform="scale(0.015625)"/>
       <path id="DejaVuSans-5d" d="M 1947 4863 
L 1947 -844 
L 622 -844 
L 622 -397 
L 1369 -397 
L 1369 4416 
L 622 4416 
L 622 4863 
L 1947 4863 
z
" transform="scale(0.015625)"/>
      </defs>
      <use xlink:href="#DejaVuSans-3b8"/>
      <use xlink:href="#DejaVuSans-5b" x="61.181641"/>
      <use xlink:href="#DejaVuSans-30" x="100.195312"/>
      <use xlink:href="#DejaVuSans-5d" x="163.818359"/>
     </g>
    </g>
   </g>
   <g id="text_7">
    <g clip-path="url(#pe3896e6dc6)">
     <!-- $\mathrm{R_Y}$ -->
     <g transform="translate(82.100356 43.350872) scale(0.13 -0.13)">
      <defs>
       <path id="DejaVuSans-52" d="M 2841 2188 
Q 3044 2119 3236 1894 
Q 3428 1669 3622 1275 
L 4263 0 
L 3584 0 
L 2988 1197 
Q 2756 1666 2539 1819 
Q 2322 1972 1947 1972 
L 1259 1972 
L 1259 0 
L 628 0 
L 628 4666 
L 2053 4666 
Q 2853 4666 3247 4331 
Q 3641 3997 3641 3322 
Q 3641 2881 3436 2590 
Q 3231 2300 2841 2188 
z
M 1259 4147 
L 1259 2491 
L 2053 2491 
Q 2509 2491 2742 2702 
Q 2975 2913 2975 3322 
Q 2975 3731 2742 3939 
Q 2509 4147 2053 4147 
L 1259 4147 
z
" transform="scale(0.015625)"/>
       <path id="DejaVuSans-59" d="M -13 4666 
L 666 4666 
L 1959 2747 
L 3244 4666 
L 3922 4666 
L 2272 2222 
L 2272 0 
L 1638 0 
L 1638 2222 
L -13 4666 
z
" transform="scale(0.015625)"/>
      </defs>
      <use xlink:href="#DejaVuSans-52" transform="translate(0 0.09375)"/>
      <use xlink:href="#DejaVuSans-59" transform="translate(70.439453 -16.3125) scale(0.7)"/>
     </g>
    </g>
   </g>
   <g id="text_8">
    <g clip-path="url(#pe3896e6dc6)">
     <!-- [1] -->
     <g transform="translate(81.526606 101.883729) scale(0.08 -0.08)">
      <use xlink:href="#DejaVuSans-3b8"/>
      <use xlink:href="#DejaVuSans-5b" x="61.181641"/>
      <use xlink:href="#DejaVuSans-31" x="100.195312"/>
      <use xlink:href="#DejaVuSans-5d" x="163.818359"/>
     </g>
    </g>
   </g>
   <g id="text_9">
    <g clip-path="url(#pe3896e6dc6)">
     <!-- $\mathrm{R_Y}$ -->
     <g transform="translate(82.100356 89.704871) scale(0.13 -0.13)">
      <use xlink:href="#DejaVuSans-52" transform="translate(0 0.09375)"/>
      <use xlink:href="#DejaVuSans-59" transform="translate(70.439453 -16.3125) scale(0.7)"/>
     </g>
    </g>
   </g>
   <g id="text_10">
    <g clip-path="url(#pe3896e6dc6)">
     <!-- [2] -->
     <g transform="translate(81.526606 148.237728) scale(0.08 -0.08)">
      <use xlink:href="#DejaVuSans-3b8"/>
      <use xlink:href="#DejaVuSans-5b" x="61.181641"/>
      <use xlink:href="#DejaVuSans-32" x="100.195312"/>
      <use xlink:href="#DejaVuSans-5d" x="163.818359"/>
     </g>
    </g>
   </g>
   <g id="text_11">
    <g clip-path="url(#pe3896e6dc6)">
     <!-- $\mathrm{R_Y}$ -->
     <g transform="translate(82.100356 136.058871) scale(0.13 -0.13)">
      <use xlink:href="#DejaVuSans-52" transform="translate(0 0.09375)"/>
      <use xlink:href="#DejaVuSans-59" transform="translate(70.439453 -16.3125) scale(0.7)"/>
     </g>
    </g>
   </g>
   <g id="text_12">
    <g clip-path="url(#pe3896e6dc6)">
     <!-- [3] -->
     <g transform="translate(81.526606 194.591728) scale(0.08 -0.08)">
      <use xlink:href="#DejaVuSans-3b8"/>
      <use xlink:href="#DejaVuSans-5b" x="61.181641"/>
      <use xlink:href="#DejaVuSans-33" x="100.195312"/>
      <use xlink:href="#DejaVuSans-5d" x="163.818359"/>
     </g>
    </g>
   </g>
   <g id="text_13">
    <g clip-path="url(#pe3896e6dc6)">
     <!-- $\mathrm{R_Y}$ -->
     <g transform="translate(82.100356 182.41287) scale(0.13 -0.13)">
      <use xlink:href="#DejaVuSans-52" transform="translate(0 0.09375)"/>
      <use xlink:href="#DejaVuSans-59" transform="translate(70.439453 -16.3125) scale(0.7)"/>
     </g>
    </g>
   </g>
   <g id="text_14">
    <g clip-path="url(#pe3896e6dc6)">
     <!-- [4] -->
     <g transform="translate(81.526606 240.945727) scale(0.08 -0.08)">
      <use xlink:href="#DejaVuSans-3b8"/>
      <use xlink:href="#DejaVuSans-5b" x="61.181641"/>
      <use xlink:href="#DejaVuSans-34" x="100.195312"/>
      <use xlink:href="#DejaVuSans-5d" x="163.818359"/>
     </g>
    </g>
   </g>
   <g id="text_15">
    <g clip-path="url(#pe3896e6dc6)">
     <!-- $\mathrm{R_Y}$ -->
     <g transform="translate(82.100356 228.76687) scale(0.13 -0.13)">
      <use xlink:href="#DejaVuSans-52" transform="translate(0 0.09375)"/>
      <use xlink:href="#DejaVuSans-59" transform="translate(70.439453 -16.3125) scale(0.7)"/>
     </g>
    </g>
   </g>
   <g id="text_16">
    <g clip-path="url(#pe3896e6dc6)">
     <!-- [9] -->
     <g transform="translate(174.234605 240.945727) scale(0.08 -0.08)">
      <defs>
       <path id="DejaVuSans-39" d="M 703 97 
L 703 672 
Q 941 559 1184 500 
Q 1428 441 1663 441 
Q 2288 441 2617 861 
Q 2947 1281 2994 2138 
Q 2813 1869 2534 1725 
Q 2256 1581 1919 1581 
Q 1219 1581 811 2004 
Q 403 2428 403 3163 
Q 403 3881 828 4315 
Q 1253 4750 1959 4750 
Q 2769 4750 3195 4129 
Q 3622 3509 3622 2328 
Q 3622 1225 3098 567 
Q 2575 -91 1691 -91 
Q 1453 -91 1209 -44 
Q 966 3 703 97 
z
M 1959 2075 
Q 2384 2075 2632 2365 
Q 2881 2656 2881 3163 
Q 2881 3666 2632 3958 
Q 2384 4250 1959 4250 
Q 1534 4250 1286 3958 
Q 1038 3666 1038 3163 
Q 1038 2656 1286 2365 
Q 1534 2075 1959 2075 
z
" transform="scale(0.015625)"/>
      </defs>
      <use xlink:href="#DejaVuSans-3b8"/>
      <use xlink:href="#DejaVuSans-5b" x="61.181641"/>
      <use xlink:href="#DejaVuSans-39" x="100.195312"/>
      <use xlink:href="#DejaVuSans-5d" x="163.818359"/>
     </g>
    </g>
   </g>
   <g id="text_17">
    <g clip-path="url(#pe3896e6dc6)">
     <!-- $\mathrm{R_Y}$ -->
     <g transform="translate(174.808355 228.76687) scale(0.13 -0.13)">
      <use xlink:href="#DejaVuSans-52" transform="translate(0 0.09375)"/>
      <use xlink:href="#DejaVuSans-59" transform="translate(70.439453 -16.3125) scale(0.7)"/>
     </g>
    </g>
   </g>
   <g id="text_18">
    <g clip-path="url(#pe3896e6dc6)">
     <!-- [8] -->
     <g transform="translate(220.588604 194.591728) scale(0.08 -0.08)">
      <defs>
       <path id="DejaVuSans-38" d="M 2034 2216 
Q 1584 2216 1326 1975 
Q 1069 1734 1069 1313 
Q 1069 891 1326 650 
Q 1584 409 2034 409 
Q 2484 409 2743 651 
Q 3003 894 3003 1313 
Q 3003 1734 2745 1975 
Q 2488 2216 2034 2216 
z
M 1403 2484 
Q 997 2584 770 2862 
Q 544 3141 544 3541 
Q 544 4100 942 4425 
Q 1341 4750 2034 4750 
Q 2731 4750 3128 4425 
Q 3525 4100 3525 3541 
Q 3525 3141 3298 2862 
Q 3072 2584 2669 2484 
Q 3125 2378 3379 2068 
Q 3634 1759 3634 1313 
Q 3634 634 3220 271 
Q 2806 -91 2034 -91 
Q 1263 -91 848 271 
Q 434 634 434 1313 
Q 434 1759 690 2068 
Q 947 2378 1403 2484 
z
M 1172 3481 
Q 1172 3119 1398 2916 
Q 1625 2713 2034 2713 
Q 2441 2713 2670 2916 
Q 2900 3119 2900 3481 
Q 2900 3844 2670 4047 
Q 2441 4250 2034 4250 
Q 1625 4250 1398 4047 
Q 1172 3844 1172 3481 
z
" transform="scale(0.015625)"/>
      </defs>
      <use xlink:href="#DejaVuSans-3b8"/>
      <use xlink:href="#DejaVuSans-5b" x="61.181641"/>
      <use xlink:href="#DejaVuSans-38" x="100.195312"/>
      <use xlink:href="#DejaVuSans-5d" x="163.818359"/>
     </g>
    </g>
   </g>
   <g id="text_19">
    <g clip-path="url(#pe3896e6dc6)">
     <!-- $\mathrm{R_Y}$ -->
     <g transform="translate(221.162354 182.41287) scale(0.13 -0.13)">
      <use xlink:href="#DejaVuSans-52" transform="translate(0 0.09375)"/>
      <use xlink:href="#DejaVuSans-59" transform="translate(70.439453 -16.3125) scale(0.7)"/>
     </g>
    </g>
   </g>
   <g id="text_20">
    <g clip-path="url(#pe3896e6dc6)">
     <!-- [7] -->
     <g transform="translate(266.942604 148.237728) scale(0.08 -0.08)">
      <defs>
       <path id="DejaVuSans-37" d="M 525 4666 
L 3525 4666 
L 3525 4397 
L 1831 0 
L 1172 0 
L 2766 4134 
L 525 4134 
L 525 4666 
z
" transform="scale(0.015625)"/>
      </defs>
      <use xlink:href="#DejaVuSans-3b8"/>
      <use xlink:href="#DejaVuSans-5b" x="61.181641"/>
      <use xlink:href="#DejaVuSans-37" x="100.195312"/>
      <use xlink:href="#DejaVuSans-5d" x="163.818359"/>
     </g>
    </g>
   </g>
   <g id="text_21">
    <g clip-path="url(#pe3896e6dc6)">
     <!-- $\mathrm{R_Y}$ -->
     <g transform="translate(267.516354 136.058871) scale(0.13 -0.13)">
      <use xlink:href="#DejaVuSans-52" transform="translate(0 0.09375)"/>
      <use xlink:href="#DejaVuSans-59" transform="translate(70.439453 -16.3125) scale(0.7)"/>
     </g>
    </g>
   </g>
   <g id="text_22">
    <g clip-path="url(#pe3896e6dc6)">
     <!-- [5] -->
     <g transform="translate(313.296603 55.529729) scale(0.08 -0.08)">
      <defs>
       <path id="DejaVuSans-35" d="M 691 4666 
L 3169 4666 
L 3169 4134 
L 1269 4134 
L 1269 2991 
Q 1406 3038 1543 3061 
Q 1681 3084 1819 3084 
Q 2600 3084 3056 2656 
Q 3513 2228 3513 1497 
Q 3513 744 3044 326 
Q 2575 -91 1722 -91 
Q 1428 -91 1123 -41 
Q 819 9 494 109 
L 494 744 
Q 775 591 1075 516 
Q 1375 441 1709 441 
Q 2250 441 2565 725 
Q 2881 1009 2881 1497 
Q 2881 1984 2565 2268 
Q 2250 2553 1709 2553 
Q 1456 2553 1204 2497 
Q 953 2441 691 2322 
L 691 4666 
z
" transform="scale(0.015625)"/>
      </defs>
      <use xlink:href="#DejaVuSans-3b8"/>
      <use xlink:href="#DejaVuSans-5b" x="61.181641"/>
      <use xlink:href="#DejaVuSans-35" x="100.195312"/>
      <use xlink:href="#DejaVuSans-5d" x="163.818359"/>
     </g>
    </g>
   </g>
   <g id="text_23">
    <g clip-path="url(#pe3896e6dc6)">
     <!-- $\mathrm{R_Y}$ -->
     <g transform="translate(313.870353 43.350872) scale(0.13 -0.13)">
      <use xlink:href="#DejaVuSans-52" transform="translate(0 0.09375)"/>
      <use xlink:href="#DejaVuSans-59" transform="translate(70.439453 -16.3125) scale(0.7)"/>
     </g>
    </g>
   </g>
   <g id="text_24">
    <g clip-path="url(#pe3896e6dc6)">
     <!-- [6] -->
     <g transform="translate(313.296603 101.883729) scale(0.08 -0.08)">
      <defs>
       <path id="DejaVuSans-36" d="M 2113 2584 
Q 1688 2584 1439 2293 
Q 1191 2003 1191 1497 
Q 1191 994 1439 701 
Q 1688 409 2113 409 
Q 2538 409 2786 701 
Q 3034 994 3034 1497 
Q 3034 2003 2786 2293 
Q 2538 2584 2113 2584 
z
M 3366 4563 
L 3366 3988 
Q 3128 4100 2886 4159 
Q 2644 4219 2406 4219 
Q 1781 4219 1451 3797 
Q 1122 3375 1075 2522 
Q 1259 2794 1537 2939 
Q 1816 3084 2150 3084 
Q 2853 3084 3261 2657 
Q 3669 2231 3669 1497 
Q 3669 778 3244 343 
Q 2819 -91 2113 -91 
Q 1303 -91 875 529 
Q 447 1150 447 2328 
Q 447 3434 972 4092 
Q 1497 4750 2381 4750 
Q 2619 4750 2861 4703 
Q 3103 4656 3366 4563 
z
" transform="scale(0.015625)"/>
      </defs>
      <use xlink:href="#DejaVuSans-3b8"/>
      <use xlink:href="#DejaVuSans-5b" x="61.181641"/>
      <use xlink:href="#DejaVuSans-36" x="100.195312"/>
      <use xlink:href="#DejaVuSans-5d" x="163.818359"/>
     </g>
    </g>
   </g>
   <g id="text_25">
    <g clip-path="url(#pe3896e6dc6)">
     <!-- $\mathrm{R_Y}$ -->
     <g transform="translate(313.870353 89.704871) scale(0.13 -0.13)">
      <use xlink:href="#DejaVuSans-52" transform="translate(0 0.09375)"/>
      <use xlink:href="#DejaVuSans-59" transform="translate(70.439453 -16.3125) scale(0.7)"/>
     </g>
    </g>
   </g>
   <g id="text_26">
    <g clip-path="url(#pe3896e6dc6)">
     <!-- [14] -->
     <g transform="translate(310.751603 240.945727) scale(0.08 -0.08)">
      <use xlink:href="#DejaVuSans-3b8"/>
      <use xlink:href="#DejaVuSans-5b" x="61.181641"/>
      <use xlink:href="#DejaVuSans-31" x="100.195312"/>
      <use xlink:href="#DejaVuSans-34" x="163.818359"/>
      <use xlink:href="#DejaVuSans-5d" x="227.441406"/>
     </g>
    </g>
   </g>
   <g id="text_27">
    <g clip-path="url(#pe3896e6dc6)">
     <!-- $\mathrm{R_Y}$ -->
     <g transform="translate(313.870353 228.76687) scale(0.13 -0.13)">
      <use xlink:href="#DejaVuSans-52" transform="translate(0 0.09375)"/>
      <use xlink:href="#DejaVuSans-59" transform="translate(70.439453 -16.3125) scale(0.7)"/>
     </g>
    </g>
   </g>
   <g id="text_28">
    <g clip-path="url(#pe3896e6dc6)">
     <!-- [13] -->
     <g transform="translate(357.105602 194.591728) scale(0.08 -0.08)">
      <use xlink:href="#DejaVuSans-3b8"/>
      <use xlink:href="#DejaVuSans-5b" x="61.181641"/>
      <use xlink:href="#DejaVuSans-31" x="100.195312"/>
      <use xlink:href="#DejaVuSans-33" x="163.818359"/>
      <use xlink:href="#DejaVuSans-5d" x="227.441406"/>
     </g>
    </g>
   </g>
   <g id="text_29">
    <g clip-path="url(#pe3896e6dc6)">
     <!-- $\mathrm{R_Y}$ -->
     <g transform="translate(360.224352 182.41287) scale(0.13 -0.13)">
      <use xlink:href="#DejaVuSans-52" transform="translate(0 0.09375)"/>
      <use xlink:href="#DejaVuSans-59" transform="translate(70.439453 -16.3125) scale(0.7)"/>
     </g>
    </g>
   </g>
   <g id="text_30">
    <g clip-path="url(#pe3896e6dc6)">
     <!-- [12] -->
     <g transform="translate(403.459602 148.237728) scale(0.08 -0.08)">
      <use xlink:href="#DejaVuSans-3b8"/>
      <use xlink:href="#DejaVuSans-5b" x="61.181641"/>
      <use xlink:href="#DejaVuSans-31" x="100.195312"/>
      <use xlink:href="#DejaVuSans-32" x="163.818359"/>
      <use xlink:href="#DejaVuSans-5d" x="227.441406"/>
     </g>
    </g>
   </g>
   <g id="text_31">
    <g clip-path="url(#pe3896e6dc6)">
     <!-- $\mathrm{R_Y}$ -->
     <g transform="translate(406.578352 136.058871) scale(0.13 -0.13)">
      <use xlink:href="#DejaVuSans-52" transform="translate(0 0.09375)"/>
      <use xlink:href="#DejaVuSans-59" transform="translate(70.439453 -16.3125) scale(0.7)"/>
     </g>
    </g>
   </g>
   <g id="text_32">
    <g clip-path="url(#pe3896e6dc6)">
     <!-- [10] -->
     <g transform="translate(449.813601 55.529729) scale(0.08 -0.08)">
      <use xlink:href="#DejaVuSans-3b8"/>
      <use xlink:href="#DejaVuSans-5b" x="61.181641"/>
      <use xlink:href="#DejaVuSans-31" x="100.195312"/>
      <use xlink:href="#DejaVuSans-30" x="163.818359"/>
      <use xlink:href="#DejaVuSans-5d" x="227.441406"/>
     </g>
    </g>
   </g>
   <g id="text_33">
    <g clip-path="url(#pe3896e6dc6)">
     <!-- $\mathrm{R_Y}$ -->
     <g transform="translate(452.932351 43.350872) scale(0.13 -0.13)">
      <use xlink:href="#DejaVuSans-52" transform="translate(0 0.09375)"/>
      <use xlink:href="#DejaVuSans-59" transform="translate(70.439453 -16.3125) scale(0.7)"/>
     </g>
    </g>
   </g>
   <g id="text_34">
    <g clip-path="url(#pe3896e6dc6)">
     <!-- [11] -->
     <g transform="translate(449.813601 101.883729) scale(0.08 -0.08)">
      <use xlink:href="#DejaVuSans-3b8"/>
      <use xlink:href="#DejaVuSans-5b" x="61.181641"/>
      <use xlink:href="#DejaVuSans-31" x="100.195312"/>
      <use xlink:href="#DejaVuSans-31" x="163.818359"/>
      <use xlink:href="#DejaVuSans-5d" x="227.441406"/>
     </g>
    </g>
   </g>
   <g id="text_35">
    <g clip-path="url(#pe3896e6dc6)">
     <!-- $\mathrm{R_Y}$ -->
     <g transform="translate(452.932351 89.704871) scale(0.13 -0.13)">
      <use xlink:href="#DejaVuSans-52" transform="translate(0 0.09375)"/>
      <use xlink:href="#DejaVuSans-59" transform="translate(70.439453 -16.3125) scale(0.7)"/>
     </g>
    </g>
   </g>
   <g id="text_36">
    <g clip-path="url(#pe3896e6dc6)">
     <!-- [19] -->
     <g transform="translate(449.813601 240.945727) scale(0.08 -0.08)">
      <use xlink:href="#DejaVuSans-3b8"/>
      <use xlink:href="#DejaVuSans-5b" x="61.181641"/>
      <use xlink:href="#DejaVuSans-31" x="100.195312"/>
      <use xlink:href="#DejaVuSans-39" x="163.818359"/>
      <use xlink:href="#DejaVuSans-5d" x="227.441406"/>
     </g>
    </g>
   </g>
   <g id="text_37">
    <g clip-path="url(#pe3896e6dc6)">
     <!-- $\mathrm{R_Y}$ -->
     <g transform="translate(452.932351 228.76687) scale(0.13 -0.13)">
      <use xlink:href="#DejaVuSans-52" transform="translate(0 0.09375)"/>
      <use xlink:href="#DejaVuSans-59" transform="translate(70.439453 -16.3125) scale(0.7)"/>
     </g>
    </g>
   </g>
   <g id="text_38">
    <g clip-path="url(#pe3896e6dc6)">
     <!-- [18] -->
     <g transform="translate(496.167601 194.591728) scale(0.08 -0.08)">
      <use xlink:href="#DejaVuSans-3b8"/>
      <use xlink:href="#DejaVuSans-5b" x="61.181641"/>
      <use xlink:href="#DejaVuSans-31" x="100.195312"/>
      <use xlink:href="#DejaVuSans-38" x="163.818359"/>
      <use xlink:href="#DejaVuSans-5d" x="227.441406"/>
     </g>
    </g>
   </g>
   <g id="text_39">
    <g clip-path="url(#pe3896e6dc6)">
     <!-- $\mathrm{R_Y}$ -->
     <g transform="translate(499.286351 182.41287) scale(0.13 -0.13)">
      <use xlink:href="#DejaVuSans-52" transform="translate(0 0.09375)"/>
      <use xlink:href="#DejaVuSans-59" transform="translate(70.439453 -16.3125) scale(0.7)"/>
     </g>
    </g>
   </g>
   <g id="text_40">
    <g clip-path="url(#pe3896e6dc6)">
     <!-- [17] -->
     <g transform="translate(542.5216 148.237728) scale(0.08 -0.08)">
      <use xlink:href="#DejaVuSans-3b8"/>
      <use xlink:href="#DejaVuSans-5b" x="61.181641"/>
      <use xlink:href="#DejaVuSans-31" x="100.195312"/>
      <use xlink:href="#DejaVuSans-37" x="163.818359"/>
      <use xlink:href="#DejaVuSans-5d" x="227.441406"/>
     </g>
    </g>
   </g>
   <g id="text_41">
    <g clip-path="url(#pe3896e6dc6)">
     <!-- $\mathrm{R_Y}$ -->
     <g transform="translate(545.64035 136.058871) scale(0.13 -0.13)">
      <use xlink:href="#DejaVuSans-52" transform="translate(0 0.09375)"/>
      <use xlink:href="#DejaVuSans-59" transform="translate(70.439453 -16.3125) scale(0.7)"/>
     </g>
    </g>
   </g>
   <g id="text_42">
    <g clip-path="url(#pe3896e6dc6)">
     <!-- [15] -->
     <g transform="translate(588.875599 55.529729) scale(0.08 -0.08)">
      <use xlink:href="#DejaVuSans-3b8"/>
      <use xlink:href="#DejaVuSans-5b" x="61.181641"/>
      <use xlink:href="#DejaVuSans-31" x="100.195312"/>
      <use xlink:href="#DejaVuSans-35" x="163.818359"/>
      <use xlink:href="#DejaVuSans-5d" x="227.441406"/>
     </g>
    </g>
   </g>
   <g id="text_43">
    <g clip-path="url(#pe3896e6dc6)">
     <!-- $\mathrm{R_Y}$ -->
     <g transform="translate(591.994349 43.350872) scale(0.13 -0.13)">
      <use xlink:href="#DejaVuSans-52" transform="translate(0 0.09375)"/>
      <use xlink:href="#DejaVuSans-59" transform="translate(70.439453 -16.3125) scale(0.7)"/>
     </g>
    </g>
   </g>
   <g id="text_44">
    <g clip-path="url(#pe3896e6dc6)">
     <!-- [16] -->
     <g transform="translate(588.875599 101.883729) scale(0.08 -0.08)">
      <use xlink:href="#DejaVuSans-3b8"/>
      <use xlink:href="#DejaVuSans-5b" x="61.181641"/>
      <use xlink:href="#DejaVuSans-31" x="100.195312"/>
      <use xlink:href="#DejaVuSans-36" x="163.818359"/>
      <use xlink:href="#DejaVuSans-5d" x="227.441406"/>
     </g>
    </g>
   </g>
   <g id="text_45">
    <g clip-path="url(#pe3896e6dc6)">
     <!-- $\mathrm{R_Y}$ -->
     <g transform="translate(591.994349 89.704871) scale(0.13 -0.13)">
      <use xlink:href="#DejaVuSans-52" transform="translate(0 0.09375)"/>
      <use xlink:href="#DejaVuSans-59" transform="translate(70.439453 -16.3125) scale(0.7)"/>
     </g>
    </g>
   </g>
   <g id="text_46">
    <g clip-path="url(#pe3896e6dc6)">
     <!-- [24] -->
     <g transform="translate(588.875599 240.945727) scale(0.08 -0.08)">
      <use xlink:href="#DejaVuSans-3b8"/>
      <use xlink:href="#DejaVuSans-5b" x="61.181641"/>
      <use xlink:href="#DejaVuSans-32" x="100.195312"/>
      <use xlink:href="#DejaVuSans-34" x="163.818359"/>
      <use xlink:href="#DejaVuSans-5d" x="227.441406"/>
     </g>
    </g>
   </g>
   <g id="text_47">
    <g clip-path="url(#pe3896e6dc6)">
     <!-- $\mathrm{R_Y}$ -->
     <g transform="translate(591.994349 228.76687) scale(0.13 -0.13)">
      <use xlink:href="#DejaVuSans-52" transform="translate(0 0.09375)"/>
      <use xlink:href="#DejaVuSans-59" transform="translate(70.439453 -16.3125) scale(0.7)"/>
     </g>
    </g>
   </g>
   <g id="text_48">
    <g clip-path="url(#pe3896e6dc6)">
     <!-- [23] -->
     <g transform="translate(635.229599 194.591728) scale(0.08 -0.08)">
      <use xlink:href="#DejaVuSans-3b8"/>
      <use xlink:href="#DejaVuSans-5b" x="61.181641"/>
      <use xlink:href="#DejaVuSans-32" x="100.195312"/>
      <use xlink:href="#DejaVuSans-33" x="163.818359"/>
      <use xlink:href="#DejaVuSans-5d" x="227.441406"/>
     </g>
    </g>
   </g>
   <g id="text_49">
    <g clip-path="url(#pe3896e6dc6)">
     <!-- $\mathrm{R_Y}$ -->
     <g transform="translate(638.348349 182.41287) scale(0.13 -0.13)">
      <use xlink:href="#DejaVuSans-52" transform="translate(0 0.09375)"/>
      <use xlink:href="#DejaVuSans-59" transform="translate(70.439453 -16.3125) scale(0.7)"/>
     </g>
    </g>
   </g>
   <g id="text_50">
    <g clip-path="url(#pe3896e6dc6)">
     <!-- [22] -->
     <g transform="translate(681.583598 148.237728) scale(0.08 -0.08)">
      <use xlink:href="#DejaVuSans-3b8"/>
      <use xlink:href="#DejaVuSans-5b" x="61.181641"/>
      <use xlink:href="#DejaVuSans-32" x="100.195312"/>
      <use xlink:href="#DejaVuSans-32" x="163.818359"/>
      <use xlink:href="#DejaVuSans-5d" x="227.441406"/>
     </g>
    </g>
   </g>
   <g id="text_51">
    <g clip-path="url(#pe3896e6dc6)">
     <!-- $\mathrm{R_Y}$ -->
     <g transform="translate(684.702348 136.058871) scale(0.13 -0.13)">
      <use xlink:href="#DejaVuSans-52" transform="translate(0 0.09375)"/>
      <use xlink:href="#DejaVuSans-59" transform="translate(70.439453 -16.3125) scale(0.7)"/>
     </g>
    </g>
   </g>
   <g id="text_52">
    <g clip-path="url(#pe3896e6dc6)">
     <!-- [20] -->
     <g transform="translate(727.937598 55.529729) scale(0.08 -0.08)">
      <use xlink:href="#DejaVuSans-3b8"/>
      <use xlink:href="#DejaVuSans-5b" x="61.181641"/>
      <use xlink:href="#DejaVuSans-32" x="100.195312"/>
      <use xlink:href="#DejaVuSans-30" x="163.818359"/>
      <use xlink:href="#DejaVuSans-5d" x="227.441406"/>
     </g>
    </g>
   </g>
   <g id="text_53">
    <g clip-path="url(#pe3896e6dc6)">
     <!-- $\mathrm{R_Y}$ -->
     <g transform="translate(731.056348 43.350872) scale(0.13 -0.13)">
      <use xlink:href="#DejaVuSans-52" transform="translate(0 0.09375)"/>
      <use xlink:href="#DejaVuSans-59" transform="translate(70.439453 -16.3125) scale(0.7)"/>
     </g>
    </g>
   </g>
   <g id="text_54">
    <g clip-path="url(#pe3896e6dc6)">
     <!-- [21] -->
     <g transform="translate(727.937598 101.883729) scale(0.08 -0.08)">
      <use xlink:href="#DejaVuSans-3b8"/>
      <use xlink:href="#DejaVuSans-5b" x="61.181641"/>
      <use xlink:href="#DejaVuSans-32" x="100.195312"/>
      <use xlink:href="#DejaVuSans-31" x="163.818359"/>
      <use xlink:href="#DejaVuSans-5d" x="227.441406"/>
     </g>
    </g>
   </g>
   <g id="text_55">
    <g clip-path="url(#pe3896e6dc6)">
     <!-- $\mathrm{R_Y}$ -->
     <g transform="translate(731.056348 89.704871) scale(0.13 -0.13)">
      <use xlink:href="#DejaVuSans-52" transform="translate(0 0.09375)"/>
      <use xlink:href="#DejaVuSans-59" transform="translate(70.439453 -16.3125) scale(0.7)"/>
     </g>
    </g>
   </g>
   <g id="text_56">
    <g clip-path="url(#pe3896e6dc6)">
     <!-- [29] -->
     <g transform="translate(727.937598 240.945727) scale(0.08 -0.08)">
      <use xlink:href="#DejaVuSans-3b8"/>
      <use xlink:href="#DejaVuSans-5b" x="61.181641"/>
      <use xlink:href="#DejaVuSans-32" x="100.195312"/>
      <use xlink:href="#DejaVuSans-39" x="163.818359"/>
      <use xlink:href="#DejaVuSans-5d" x="227.441406"/>
     </g>
    </g>
   </g>
   <g id="text_57">
    <g clip-path="url(#pe3896e6dc6)">
     <!-- $\mathrm{R_Y}$ -->
     <g transform="translate(731.056348 228.76687) scale(0.13 -0.13)">
      <use xlink:href="#DejaVuSans-52" transform="translate(0 0.09375)"/>
      <use xlink:href="#DejaVuSans-59" transform="translate(70.439453 -16.3125) scale(0.7)"/>
     </g>
    </g>
   </g>
   <g id="text_58">
    <g clip-path="url(#pe3896e6dc6)">
     <!-- [28] -->
     <g transform="translate(774.291597 194.591728) scale(0.08 -0.08)">
      <use xlink:href="#DejaVuSans-3b8"/>
      <use xlink:href="#DejaVuSans-5b" x="61.181641"/>
      <use xlink:href="#DejaVuSans-32" x="100.195312"/>
      <use xlink:href="#DejaVuSans-38" x="163.818359"/>
      <use xlink:href="#DejaVuSans-5d" x="227.441406"/>
     </g>
    </g>
   </g>
   <g id="text_59">
    <g clip-path="url(#pe3896e6dc6)">
     <!-- $\mathrm{R_Y}$ -->
     <g transform="translate(777.410347 182.41287) scale(0.13 -0.13)">
      <use xlink:href="#DejaVuSans-52" transform="translate(0 0.09375)"/>
      <use xlink:href="#DejaVuSans-59" transform="translate(70.439453 -16.3125) scale(0.7)"/>
     </g>
    </g>
   </g>
   <g id="text_60">
    <g clip-path="url(#pe3896e6dc6)">
     <!-- [27] -->
     <g transform="translate(820.645596 148.237728) scale(0.08 -0.08)">
      <use xlink:href="#DejaVuSans-3b8"/>
      <use xlink:href="#DejaVuSans-5b" x="61.181641"/>
      <use xlink:href="#DejaVuSans-32" x="100.195312"/>
      <use xlink:href="#DejaVuSans-37" x="163.818359"/>
      <use xlink:href="#DejaVuSans-5d" x="227.441406"/>
     </g>
    </g>
   </g>
   <g id="text_61">
    <g clip-path="url(#pe3896e6dc6)">
     <!-- $\mathrm{R_Y}$ -->
     <g transform="translate(823.764346 136.058871) scale(0.13 -0.13)">
      <use xlink:href="#DejaVuSans-52" transform="translate(0 0.09375)"/>
      <use xlink:href="#DejaVuSans-59" transform="translate(70.439453 -16.3125) scale(0.7)"/>
     </g>
    </g>
   </g>
   <g id="text_62">
    <g clip-path="url(#pe3896e6dc6)">
     <!-- [25] -->
     <g transform="translate(866.999596 55.529729) scale(0.08 -0.08)">
      <use xlink:href="#DejaVuSans-3b8"/>
      <use xlink:href="#DejaVuSans-5b" x="61.181641"/>
      <use xlink:href="#DejaVuSans-32" x="100.195312"/>
      <use xlink:href="#DejaVuSans-35" x="163.818359"/>
      <use xlink:href="#DejaVuSans-5d" x="227.441406"/>
     </g>
    </g>
   </g>
   <g id="text_63">
    <g clip-path="url(#pe3896e6dc6)">
     <!-- $\mathrm{R_Y}$ -->
     <g transform="translate(870.118346 43.350872) scale(0.13 -0.13)">
      <use xlink:href="#DejaVuSans-52" transform="translate(0 0.09375)"/>
      <use xlink:href="#DejaVuSans-59" transform="translate(70.439453 -16.3125) scale(0.7)"/>
     </g>
    </g>
   </g>
   <g id="text_64">
    <g clip-path="url(#pe3896e6dc6)">
     <!-- [26] -->
     <g transform="translate(866.999596 101.883729) scale(0.08 -0.08)">
      <use xlink:href="#DejaVuSans-3b8"/>
      <use xlink:href="#DejaVuSans-5b" x="61.181641"/>
      <use xlink:href="#DejaVuSans-32" x="100.195312"/>
      <use xlink:href="#DejaVuSans-36" x="163.818359"/>
      <use xlink:href="#DejaVuSans-5d" x="227.441406"/>
     </g>
    </g>
   </g>
   <g id="text_65">
    <g clip-path="url(#pe3896e6dc6)">
     <!-- $\mathrm{R_Y}$ -->
     <g transform="translate(870.118346 89.704871) scale(0.13 -0.13)">
      <use xlink:href="#DejaVuSans-52" transform="translate(0 0.09375)"/>
      <use xlink:href="#DejaVuSans-59" transform="translate(70.439453 -16.3125) scale(0.7)"/>
     </g>
    </g>
   </g>
  </g>
 </g>
 <defs>
  <clipPath id="pe3896e6dc6">
   <rect x="7.2" y="7.2" width="901.051985" height="250.311597"/>
  </clipPath>
 </defs>
</svg>
